<?xml version="1.0" encoding="UTF-8" standalone="no"?>
<svg
   xmlns:dc="http://purl.org/dc/elements/1.1/"
   xmlns:cc="http://creativecommons.org/ns#"
   xmlns:rdf="http://www.w3.org/1999/02/22-rdf-syntax-ns#"
   xmlns:svg="http://www.w3.org/2000/svg"
   xmlns="http://www.w3.org/2000/svg"
   xmlns:sodipodi="http://sodipodi.sourceforge.net/DTD/sodipodi-0.dtd"
   xmlns:inkscape="http://www.inkscape.org/namespaces/inkscape"
   width="320"
   height="320"
   version="1.1"
   id="svg1104"
   sodipodi:docname="no-pic.svg"
   inkscape:export-filename="/home/sal/Desktop/code/rails/partage/app/assets/images/no-pic.png"
   inkscape:export-xdpi="96"
   inkscape:export-ydpi="96"
   inkscape:version="0.92.3 (2405546, 2018-03-11)">
  <metadata
     id="metadata1108">
    <rdf:RDF>
      <cc:Work
         rdf:about="">
        <dc:format>image/svg+xml</dc:format>
        <dc:type
           rdf:resource="http://purl.org/dc/dcmitype/StillImage" />
        <dc:title />
      </cc:Work>
    </rdf:RDF>
  </metadata>
  <sodipodi:namedview
     pagecolor="#ffffff"
     bordercolor="#666666"
     borderopacity="1"
     objecttolerance="10"
     gridtolerance="10"
     guidetolerance="10"
     inkscape:pageopacity="0"
     inkscape:pageshadow="2"
     inkscape:window-width="1920"
     inkscape:window-height="1025"
     id="namedview1106"
     showgrid="false"
     fit-margin-top="0"
     fit-margin-left="0"
     fit-margin-right="0"
     fit-margin-bottom="0"
     inkscape:zoom="2.59375"
     inkscape:cx="160"
     inkscape:cy="160"
     inkscape:window-x="1920"
     inkscape:window-y="27"
     inkscape:window-maximized="1"
     inkscape:current-layer="svg1104" />
  <defs
     id="defs1060">
    <style
       type="text/css"
       id="style1058"><![CDATA[
  path { stroke-linecap: round; stroke-linejoin: round; }
]]></style>
  </defs>
  <rect
     style="opacity:0.25;vector-effect:none;fill:#ff0000;fill-opacity:1;stroke:none;stroke-width:7.18110228;stroke-linecap:butt;stroke-linejoin:round;stroke-miterlimit:4;stroke-dasharray:none;stroke-dashoffset:0;stroke-opacity:1;paint-order:markers stroke fill"
     id="rect834"
     width="320"
     height="320"
     x="0"
     y="0"
     ry="48" />
  <path
     style="fill:#ffffff;stroke:none;stroke-width:0.5px;stroke-linecap:butt;stroke-linejoin:miter;stroke-opacity:1"
     d="m 213.24045,224.46785 c 0,0 -1.18651,-57.71216 -2.85768,-73.59872 -1.67118,-15.88656 -5.86631,-56.408476 -8.90719,-57.166346 -3.04088,-0.757871 -39.79322,5.389054 -46.51169,5.212252 -6.71846,-0.176802 -27.07362,-1.909786 -27.70741,-0.286984 -0.6338,1.622798 -20.6107,27.095418 -20.91707,27.959018 -0.30637,0.8636 1.59525,37.56777 2.12565,40.5734 0.53041,3.00562 5.98067,53.26525 5.21743,55.45668 -0.76324,2.19143 39.88972,2.24315 46.40865,2.53425 6.51893,0.2911 53.14931,-0.68355 53.14931,-0.68355 z"
     id="path7530"
     inkscape:connector-curvature="0" />
  <g
     id="g7528"
     transform="matrix(0.44791249,0,0,0.44423817,88.334003,92.689478)">
    <path
       __timestamp="0x1722aa5c70b"
       __comx="492.123"
       __comy="294.700"
       d="m 128.1735,141.965 0.262,-0.111 -0.202,-0.906 -1.771,-0.059 -0.364,0.942 -0.137,0.469 -0.13,0.922 -0.24,1.399 -0.365,1.632 -0.388,1.608 -0.254,1.823 -0.251,1.472 -0.13,1.332 0.009,1.066 0.002,0.669 0.002,0.446 0.112,0.949 0.585,0.634 0.836,0.303 0.971,-0.235 0.684,-0.449 0.956,-0.748 1.1,-1.113 1.168,-1.515 0.625,-0.845 0.618,-0.836 0.622,-0.834 0.649,-0.873 0.583,-0.931 0.52,-0.835 1.203,-1.513 1.096,-1.42 0.919,-1.03 0.819,-0.732 0.403,-0.399 -0.124,-0.082 -0.383,-0.174 0.206,0.658 0.328,1.456 -0.011,1.146 -0.004,1.305 0.064,1.64 0.062,1.592 v 1.648 1.672 1.56 l 0.003,1.646 0.196,1.423 0.21,1.457 0.856,2.265 1.833,1.184 2.335,0.161 1.405,-0.322 1.295,-0.311 1.538,-0.541 1.575,-0.56 1.684,-0.97 1.596,-0.927 1.647,-1.001 1.675,-1.018 1.462,-1.105 1.45,-1.098 1.215,-1.152 1.178,-1.125 1.048,-0.891 1.176,-0.724 -0.219,-0.356 -1.176,0.724 -1.304,0.558 -1.422,0.881 -1.385,0.854 -1.521,0.908 -1.51,0.901 -1.669,0.877 -1.696,0.893 -1.623,0.856 -1.535,0.813 -1.397,0.443 -1.434,0.462 -1.182,0.246 -1.071,0.235 -1.38,-0.062 -0.644,-0.376 -0.383,-1.301 -0.162,-1.218 -0.175,-1.252 0.003,-1.474 v -1.56 -1.672 -1.695 l -0.061,-1.64 -0.06,-1.592 -0.004,-1.258 -0.011,-1.417 -0.415,-1.887 -0.537,-1.348 -1.126,-0.842 -1.61,0.363 -0.836,0.715 -0.915,0.828 -1.061,1.199 -1.133,1.477 -1.273,1.607 -0.595,0.948 -0.531,0.852 -0.589,0.799 -0.617,0.838 -0.62,0.835 -0.613,0.827 -1.061,1.383 -0.882,0.893 -0.778,0.589 -0.306,0.22 0.227,-0.012 0.341,0.08 0.337,0.411 0.112,0.058 0.002,-0.446 0.002,-0.669 0.009,-0.94 0.118,-1.12 0.244,-1.426 0.242,-1.743 0.355,-1.512 0.378,-1.712 0.256,-1.499 0.118,-0.861 0.111,-0.645 -0.364,0.496 -1.523,-0.059 -0.202,-0.683 0.262,0.111 z"
       id="path1079"
       inkscape:connector-curvature="0"
       style="fill:#000000;stroke:none;stroke-width:3;stroke-linecap:round;stroke-linejoin:round" />
    <path
       __timestamp="0x1722aa5c979"
       __comx="515.694"
       __comy="299.083"
       d="m 174.1225,146.663 -0.619,-0.103 -1.223,-0.034 -1.101,0.288 -1.031,0.277 -1.342,0.5 -1.341,0.501 -1.397,0.683 -1.426,0.701 -1.3,0.929 -1.255,0.9 -1.007,0.789 -1.054,0.831 -0.739,0.837 -0.74,0.851 -0.887,1.617 0.002,1.692 0.888,1.454 1.673,0.744 1.065,0.244 1.153,0.245 1.402,-0.175 1.315,-0.181 1.5,-0.466 1.522,-0.483 1.518,-0.883 1.494,-0.88 1.362,-1.169 1.351,-1.168 1.04,-1.224 1.045,-1.241 0.605,-1.079 0.579,-1.045 0.708,-1.792 -0.508,-1.593 -1.374,-0.495 -1.659,0.386 -1.039,0.434 -1.025,0.432 -1.077,0.614 -1.019,0.585 -1.098,0.682 -1.109,0.688 -0.888,0.663 -0.991,0.446 0.197,0.438 0.991,-0.446 1.093,-0.229 1.243,-0.427 1.255,-0.432 1.087,-0.53 1.029,-0.501 0.956,-0.348 0.943,-0.346 1.065,-0.283 0.112,-0.049 -0.013,0.19 -0.53,1.105 -0.535,0.961 -0.51,0.927 -0.936,1.099 -0.941,1.116 -1.249,1.061 -1.238,1.06 -1.354,0.792 -1.33,0.789 -1.326,0.409 -1.348,0.426 -1.161,0.153 -1.074,0.16 -0.828,-0.2 -0.916,-0.202 -1.051,-0.37 -0.35,-0.552 0.002,-0.76 0.599,-1.057 0.623,-0.709 0.623,-0.723 0.928,-0.729 0.974,-0.771 1.222,-0.883 1.177,-0.854 1.298,-0.636 1.327,-0.654 1.259,-0.502 1.258,-0.503 0.95,-0.28 0.88,-0.269 1.006,-0.034 0.619,-0.103 z"
       id="path1081"
       inkscape:connector-curvature="0"
       style="fill:#000000;stroke:none;stroke-width:3;stroke-linecap:round;stroke-linejoin:round" />
    <path
       __timestamp="0x1722aa5cda9"
       __comx="450.561"
       __comy="355.347"
       d="m 88.7835,200.585 0.089,-0.111 0.081,-0.111 -0.607,-1.019 -1.34,0.918 -0.321,1.063 -0.408,1.623 -0.359,1.118 -0.381,1.19 -0.389,1.355 -0.383,1.334 -0.433,1.56 -0.437,1.575 -0.437,1.742 -0.437,1.74 -0.436,1.907 -0.437,1.913 -0.375,1.913 -0.375,1.914 -0.31,1.914 -0.308,1.904 -0.244,1.681 -0.248,1.71 -0.11,1.488 -0.11,1.501 -0.001,1.053 v 1.003 l 0.004,1.337 0.008,0.78 2.34,0.223 -0.034,-0.501 0.348,-1.11 0.385,-1.825 0.242,-1.108 0.247,-1.131 0.25,-1.297 0.247,-1.286 0.247,-1.342 0.243,-1.322 0.3,-1.435 0.291,-1.4 0.422,-1.343 0.427,-1.364 0.547,-1.476 0.544,-1.471 0.608,-1.359 0.61,-1.365 0.669,-1.31 0.657,-1.289 0.726,-1.117 0.735,-1.135 0.665,-0.917 0.62,-0.863 0.734,-0.704 0.754,-0.733 0.755,-0.563 0.728,-0.55 1.329,-0.689 1.037,-0.378 0.31,-0.108 -0.207,-0.126 0.052,0.443 0.222,1.364 -0.061,0.929 -0.057,0.999 -0.177,1.111 -0.186,1.174 -0.189,1.23 -0.186,1.212 -0.183,1.045 -0.185,1.053 -0.188,0.997 -0.205,1.112 -0.01,1.644 0.173,1.197 0.767,1.237 1.258,0.468 1.154,0.134 1.606,-0.288 1.723,-0.891 1.735,-1.202 0.862,-0.778 0.839,-0.762 1.461,-1.565 0.614,-0.919 0.518,-0.785 1.127,-1.36 0.794,-1.327 0.662,-1.2 0.576,-1.448 0.146,-1.222 0.254,-1.218 0.127,-1.04 0.098,-0.755 0.209,-0.545 0.142,-0.327 -0.321,0.243 -0.572,0.233 0.124,0.02 -0.342,-0.039 -0.391,-0.279 0.099,0.476 0.367,1.131 0.485,1.442 0.481,1.513 0.513,1.95 0.773,1.871 0.782,1.848 0.968,1.719 1.134,1.338 1.211,1.161 1.409,0.651 1.269,0.31 1.162,0.145 1.122,-0.176 0.759,-0.449 0.222,-0.584 0.614,-0.331 -0.258,-0.478 -0.624,0.337 -0.521,-0.139 -0.479,-0.004 -0.612,-0.176 -0.819,-0.3 -0.96,-0.358 -0.82,-0.463 -0.771,-0.845 -0.848,-1.113 -0.765,-1.401 -0.704,-1.718 -0.713,-1.695 -0.478,-1.839 -0.51,-1.607 -0.506,-1.455 -0.376,-1.097 -0.396,-1.084 -0.886,-0.725 -0.59,-0.039 -0.124,0.02 -0.82,0.233 -0.569,0.912 -0.105,0.341 -0.286,0.792 -0.15,1.028 -0.121,0.966 -0.242,1.234 -0.102,1.007 -0.415,1.004 -0.576,1.029 -0.692,1.125 -1.101,1.315 -0.597,0.887 -0.5,0.752 -1.264,1.333 -0.771,0.687 -0.748,0.671 -1.484,1.027 -1.249,0.669 -0.871,0.158 -0.58,-0.089 -0.228,0.022 0.024,-0.1 -0.074,-0.586 -0.01,-1.254 0.167,-0.894 0.183,-1.009 0.187,-1.064 0.188,-1.073 0.185,-1.24 0.183,-1.222 0.186,-1.166 0.194,-1.229 0.067,-1.118 0.062,-1.188 -0.273,-1.756 -0.443,-1.341 -1.197,-0.795 -1.423,0.115 -1.439,0.514 -1.643,0.872 -0.882,0.676 -0.855,0.663 -0.856,0.828 -0.876,0.856 -0.742,1.032 -0.697,0.977 -0.751,1.205 -0.76,1.223 -0.705,1.385 -0.693,1.365 -0.629,1.422 -0.63,1.427 -0.57,1.538 -0.567,1.533 -0.44,1.422 -0.445,1.443 -0.328,1.497 -0.319,1.463 -0.252,1.352 -0.249,1.333 -0.248,1.277 -0.246,1.266 -0.248,1.098 -0.253,1.121 -0.358,1.742 -0.395,1.341 -0.034,0.837 2.34,-0.223 0.008,-0.78 0.004,-1.337 v -1.003 l -0.001,-0.953 0.138,-1.397 0.137,-1.41 0.248,-1.633 0.251,-1.662 0.311,-1.885 0.309,-1.875 0.368,-1.875 0.368,-1.876 0.429,-1.876 0.43,-1.882 0.43,-1.715 0.43,-1.712 0.429,-1.545 0.433,-1.56 0.36,-1.34 0.354,-1.319 0.362,-1.15 0.384,-1.222 0.335,-1.72 0.175,-0.943 -1.093,0.249 -0.607,-0.796 0.081,0.111 0.089,0.111 z"
       id="path1083"
       inkscape:connector-curvature="0"
       style="fill:#000000;stroke:none;stroke-width:3;stroke-linecap:round;stroke-linejoin:round" />
    <path
       __timestamp="0x1722aa5d103"
       __comx="535.297"
       __comy="354.258"
       d="m 136.4775,206.013 -0.124,-0.209 -0.53,-0.11 -0.744,0.159 -1.143,0.209 -1.408,0.909 -0.978,0.978 -0.955,1.067 -0.819,1.208 -0.561,1.012 -0.443,1.159 -0.293,1.321 -0.006,1.082 0.177,1.524 0.604,1.139 0.705,1.128 0.942,0.983 1.211,0.738 1.299,0.868 1.377,0.299 1.733,0.235 1.8,-0.39 1.774,-0.759 0.998,-0.607 0.944,-0.579 0.941,-0.639 0.956,-0.651 0.948,-0.771 0.913,-0.745 0.915,-0.742 0.929,-0.753 0.92,-0.819 0.93,-0.829 0.873,-0.876 0.904,-0.912 0.718,-1.019 0.697,-0.997 0.583,-1.046 0.571,-1.029 0.509,-1.085 0.52,-1.113 0.334,-1.058 0.328,-1.05 0.207,-1.05 0.195,-0.996 0.424,-1.936 0.15,-1.691 0.268,-1.667 0.146,-1.595 0.131,-1.711 0.016,-1.1 0.139,-1.225 0.02,-0.832 0.04,-0.446 -2.221,-0.223 -0.078,0.306 0.127,0.936 0.108,1.589 -0.001,1.237 0.001,1.232 -0.121,1.455 -0.125,1.515 -0.126,1.905 -0.124,1.875 -0.185,1.875 -0.189,1.916 -0.084,1.359 -0.083,1.337 -0.084,1.355 -0.063,1.912 -0.062,1.914 -0.002,1.803 -0.002,1.807 0.064,1.639 0.069,1.7 0.26,1.476 0.259,1.45 0.328,1.17 0.338,1.19 0.764,1.714 1.098,1.147 0.833,0.527 1.088,0.188 0.98,-0.024 1.138,-0.29 1.112,-0.584 1.182,-1.057 0.924,-1.187 0.992,-1.228 1.163,-1.515 0.919,-1.518 0.901,-1.622 0.783,-1.711 0.741,-1.655 0.734,-1.532 0.614,-1.186 0.652,-1.175 0.3,-0.802 0.18,-0.655 -1.047,-1.605 -1.469,1.281 -0.388,1.032 -0.386,1.689 -0.353,1.052 -0.386,1.159 -0.322,1.271 -0.315,1.25 -0.253,1.194 -0.248,1.17 -0.25,1.17 -0.265,1.259 -0.132,1.967 -0.119,1.581 0.481,1.513 0.792,1.164 1.146,0.638 1.34,0.643 1.473,0.151 1.474,0.096 1.524,-0.146 1.63,-0.665 1.454,-0.933 1.409,-1.525 0.612,-0.914 0.633,-0.968 0.653,-1.857 0.878,-1.819 0.502,-1.793 0.55,-1.183 0.661,-1.067 0.232,-0.731 0.091,-0.046 0.169,-0.123 -0.937,0.214 -0.885,-0.624 0.06,0.516 0.121,1.387 0.065,0.987 0.064,0.963 0.016,1.075 0.017,1.114 0.006,1.059 0.007,1.108 0.191,1.787 0.713,1.617 1.393,1.203 1.432,0.423 1.904,0.24 2.056,-0.518 1.914,-0.98 0.995,-0.714 1.002,-0.728 0.936,-0.956 0.91,-0.939 0.722,-0.941 0.726,-0.956 0.535,-0.959 0.531,-0.965 0.665,-1.769 0.522,-1.649 0.268,-1.435 0.126,-1.003 0.138,-0.734 v -0.868 l -0.124,-0.669 -0.005,-0.493 -0.115,-0.447 0.01,-0.297 0.012,-0.111 0.001,-0.111 0.04,-0.223 -2.326,-0.111 -0.023,0.386 0.163,0.627 0.223,0.681 0.098,1.094 0.125,1.433 0.121,1.62 -10e-4,1.627 0.004,1.672 0.007,1.337 0.001,1.114 v 0.892 l 0.007,0.688 0.277,1.032 0.629,0.623 0.652,0.279 0.633,0.025 0.627,-0.133 0.568,-0.13 0.799,-0.29 0.985,-0.602 0.705,-0.746 0.999,-0.9 0.989,-1.116 1.12,-1.008 1.275,-0.833 1.468,-0.926 1.608,-0.532 1.776,-0.645 0.886,-0.156 0.989,-0.178 0.989,-0.176 0.962,-0.172 1.834,-0.226 1.704,-0.237 1.648,-0.116 1.214,-0.241 1.077,-0.29 0.94,-0.702 0.293,-0.798 0.139,-0.978 -0.698,-1.029 -0.857,-0.623 -1.498,-0.547 -1.926,-0.252 -2.117,-0.003 -2.183,0.247 -1.631,0.603 -1.455,0.652 -0.823,1.32 -0.328,1.385 0.288,1.822 0.481,1.134 0.493,1.122 0.819,1.112 0.82,1.09 1.26,1.139 1.245,1.114 1.442,0.931 1.405,0.902 1.654,0.897 1.699,0.917 1.822,0.636 1.805,0.623 1.931,0.387 1.925,0.381 1.426,0.115 1.362,0.108 1.448,0.111 2.003,-0.191 1.991,-0.196 1.67,-0.454 1.693,-0.468 1.161,-0.685 1.226,-0.754 0.372,-1.712 -0.25,-0.928 -0.172,0.048 0.245,0.855 -1.114,0.74 -1.003,0.36 -1.068,0.429 -1.527,0.312 -1.549,0.326 -1.848,0.138 -1.836,0.144 -1.276,-0.111 -1.362,-0.115 -1.298,-0.108 -1.79,-0.399 -1.784,-0.394 -1.662,-0.603 -1.646,-0.59 -1.52,-0.866 -1.565,-0.886 -1.32,-0.881 -1.283,-0.852 -1.108,-1.003 -1.093,-0.978 -0.666,-0.916 -0.666,-0.894 -0.373,-0.884 -0.386,-0.872 -0.207,-1.075 0.167,-0.622 0.168,-0.463 0.774,-0.239 1.341,-0.512 1.78,-0.198 1.846,-0.003 1.541,0.194 0.979,0.345 0.382,0.268 0.045,-0.137 -0.108,-0.086 0.045,0.094 -0.05,-0.033 -0.657,0.156 -1.015,0.205 -1.571,0.107 -1.764,0.209 -1.88,0.219 -1.019,0.162 -0.992,0.158 -0.992,0.156 -1.095,0.178 -1.939,0.692 -1.859,0.582 -1.751,1.08 -1.45,0.95 -1.357,1.221 -0.992,1.113 -0.982,0.883 -0.533,0.591 -0.501,0.29 -0.439,0.156 -0.423,0.093 -0.364,0.089 0.137,0.025 0.157,0.056 0.134,0.178 0.03,-0.082 0.007,-0.427 v -0.892 l 0.001,-1.114 0.007,-1.337 0.004,-1.672 -0.001,-1.716 -0.127,-1.723 -0.122,-1.465 -0.149,-1.358 -0.273,-0.88 -0.085,-0.265 -0.023,-0.06 -2.326,0.111 0.04,0.223 0.001,0.111 0.012,0.111 0.01,0.594 0.132,0.445 -0.005,0.398 0.124,0.669 v 0.469 l -0.11,0.603 -0.122,1.003 -0.228,1.239 -0.469,1.471 -0.573,1.574 -0.46,0.818 -0.456,0.824 -0.636,0.828 -0.641,0.842 -0.823,0.844 -0.798,0.827 -0.855,0.609 -0.862,0.623 -1.553,0.803 -1.411,0.374 -1.316,-0.205 -0.797,-0.246 -0.589,-0.58 -0.277,-0.835 -0.057,-1.333 0.007,-1.01 0.006,-1.059 0.017,-1.114 0.016,-1.154 -0.059,-1.043 -0.059,-1.019 -0.127,-1.511 -0.188,-1.045 -1.133,-1.07 -1.185,0.437 -0.326,0.323 -0.405,0.623 -0.264,0.83 -0.577,0.939 -0.689,1.492 -0.489,1.774 -0.855,1.747 -0.585,1.709 -0.482,0.703 -0.502,0.758 -1.068,1.149 -1.022,0.627 -1.094,0.449 -0.952,0.076 -1.25,-0.127 -1.003,-0.072 -0.889,-0.471 -0.588,-0.253 -0.199,-0.397 -0.262,-0.716 0.128,-1.094 0.116,-1.822 0.23,-1.082 0.246,-1.171 0.248,-1.17 0.242,-1.146 0.304,-1.202 0.297,-1.181 0.357,-1.07 0.39,-1.177 0.357,-1.654 0.355,-0.974 -1.221,0.39 -1.047,-1.16 -0.068,0.237 -0.195,0.535 -0.587,1.054 -0.625,1.266 -0.752,1.589 -0.745,1.688 -0.703,1.633 -0.833,1.498 -0.814,1.379 -1.066,1.383 -0.989,1.223 -0.81,1.042 -0.799,0.726 -0.622,0.307 -0.596,0.155 -0.506,-0.024 -0.398,-0.035 -0.157,-0.142 -0.636,-0.637 -0.475,-1.183 -0.281,-1.038 -0.291,-1.059 -0.236,-1.336 -0.236,-1.31 -0.054,-1.532 -0.06,-1.593 -0.002,-1.76 -0.002,-1.763 0.061,-1.875 0.061,-1.877 0.082,-1.32 0.083,-1.337 0.081,-1.315 0.183,-1.873 0.186,-1.914 0.124,-1.914 0.122,-1.884 0.122,-1.494 0.126,-1.554 0.001,-1.332 -0.001,-1.327 -0.139,-1.754 -0.121,-0.847 -0.078,-0.14 -2.221,0.223 0.04,0.446 0.02,0.728 -0.109,1.227 0.016,1.129 -0.116,1.632 -0.101,1.526 -0.228,1.676 -0.098,1.653 -0.319,1.853 -0.176,1.01 -0.165,0.955 -0.291,0.956 -0.285,0.948 -0.471,1.004 -0.481,1.032 -0.543,0.977 -0.532,0.96 -0.665,0.897 -0.644,0.876 -0.829,0.76 -0.861,0.796 -0.928,0.731 -0.938,0.741 -0.928,0.696 -0.942,0.707 -0.944,0.704 -0.909,0.678 -0.901,0.575 -0.917,0.587 -0.913,0.536 -0.86,0.507 -1.446,0.579 -1.172,0.278 -1.239,-0.211 -0.852,-0.147 -0.931,-0.692 -1.018,-0.599 -0.544,-0.577 -0.533,-0.878 -0.387,-0.644 -0.07,-0.928 -0.006,-0.701 0.202,-0.908 0.3,-0.847 0.43,-0.771 0.667,-1.021 0.778,-0.939 0.756,-0.805 0.82,-0.651 0.838,-0.237 0.494,-0.287 0.213,-0.11 0.124,-0.209 z"
       id="path1085"
       inkscape:connector-curvature="0"
       style="fill:#000000;stroke:none;stroke-width:3;stroke-linecap:round;stroke-linejoin:round" />
    <path
       __timestamp="0x1722aa5d897"
       __comx="498.565"
       __comy="341.139"
       d="m 165.2065,193.248 0.12,-0.042 0.109,0.024 -0.835,-0.67 -1.088,-0.557 -1.042,-0.526 -1.476,-0.58 -1.459,-0.571 -1.316,-0.421 -1.28,-0.409 -1.343,-0.427 -1.555,-0.29 -1.49,-0.275 -1.557,-0.287 -1.515,-0.08 -1.448,-0.073 -1.46,-0.074 -1.462,0.003 -1.449,0.004 -1.492,0.003 -1.818,0.452 -1.777,0.45 -1.359,0.214 -1.362,0.167 0.011,0.092 1.362,-0.167 1.365,-0.121 1.814,0.227 1.773,0.229 1.397,0.151 1.441,0.152 1.428,0.152 1.429,0.149 1.442,0.15 1.375,0.142 1.415,0.308 1.482,0.319 1.417,0.304 1.216,0.39 1.28,0.409 1.244,0.397 1.389,0.543 1.372,0.534 0.94,0.477 0.893,0.446 0.899,0.668 0.604,0.247 0.368,-0.042 z"
       id="path1087"
       inkscape:connector-curvature="0"
       style="fill:#000000;stroke:none;stroke-width:3;stroke-linecap:round;stroke-linejoin:round" />
    <path
       __timestamp="0x1722aa5da85"
       __comx="463.551"
       __comy="337.315"
       d="m 111.9595,190.417 0.568,0.502 1.165,-0.135 1.2,-0.608 1.667,-0.875 1.257,-1.39 0.671,-1.321 0.638,-1.103 0.175,-1.008 -0.322,-0.613 0.086,-0.142 -1.085,-0.603 -0.162,0.304 -0.57,0.501 -0.321,0.552 -0.6,0.903 -0.567,1.131 -0.725,0.839 -1.305,0.685 -0.781,0.506 -0.568,0.088 -0.422,0.502 z"
       id="path1089"
       inkscape:connector-curvature="0"
       style="fill:#000000;stroke:none;stroke-width:3;stroke-linecap:round;stroke-linejoin:round" />
    <path
       __timestamp="0x1722aa620c7"
       __comx="510.504"
       __comy="224.708"
       d="m 183.2365,58.182817 0.275,-0.111 0.003,-0.223 -0.066,-0.459 -0.118,-0.114 0.003,-0.112 -0.599,-0.581 -0.113,-0.028 -0.116,-0.133 -0.457,-0.095 -0.124,-0.073 -0.504,0.048 -0.731,0.586 -0.257,0.55 -0.571,0.494 -0.538,0.823 -0.937,1.037 -1.135,1.249 -1.243,1.554 -0.842,0.918 -0.885,0.966 -0.945,1.134 -0.939,1.126 -1.065,1.348 -1.056,1.337 -1.178,1.505 -1.189,1.519 -1.188,1.631 -1.185,1.627 -1.123,1.627 -1.131,1.641 -1.008,1.641 -0.99,1.612 -0.866,1.389 -0.862,1.384 -0.861,1.329 -0.87,1.342 -0.746,1.175 -0.747,1.176 -0.624,1.008003 -0.61,0.986 -0.547,0.819 -0.554,0.830005 -0.987,1.443 -0.947,1.385005 -1.069,1.171 -0.996,1.118005 -1.015,1.142 -0.89,1.143005 -0.862,1.105 -1.007,1.246 -0.881,1.245 -1.026,1.387 -0.768,1.378 -0.647,1.045 -0.522,1.17 -0.297,0.642 -0.433,0.558 0.18,1.932 1.709,-0.229 0.566,-0.612 0.951,-0.533 -0.817,-1.453 -1.031,0.581 -0.672,0.28 0.719,0.217 0.428,0.817 0.31,-0.334 0.446,-0.918 0.468,-1.059 0.592,-0.961 0.718,-1.297 0.955,-1.287 0.853,-1.207 0.974,-1.206 0.872,-1.124 0.844,-1.086 0.967,-1.086 0.985,-1.111005 1.159,-1.281 1.035,-1.512005 0.994,-1.454005 0.561,-0.841 0.568,-0.852005 0.628,-1.02 0.614,-0.998 0.739,-1.164003 0.74,-1.166 0.864,-1.333 0.872,-1.346 0.872,-1.402 0.868,-1.397 0.992,-1.62 0.974,-1.591 1.097,-1.591 1.106,-1.605 1.168,-1.605 1.165,-1.601 1.164,-1.49 1.175,-1.504 1.049,-1.338 1.041,-1.327 0.919,-1.103 0.912,-1.095 0.849,-0.929 0.892,-0.977 1.234,-1.566 1.095,-1.203 1.045,-1.192 0.453,-0.737 0.668,-0.621 0.238,-0.564 -0.236,0.141 -0.256,0.048 0.124,-0.073 -0.21,-0.095 0.132,0.09 0.134,-0.028 -0.351,-0.358 0.003,0.111 0.13,0.109 -0.066,-0.237 0.003,0.223 0.275,0.111 z"
       id="path1091"
       inkscape:connector-curvature="0"
       style="fill:#ff0000;stroke:#ff0000;stroke-width:8.04927158;stroke-linecap:round;stroke-linejoin:round;stroke-miterlimit:4;stroke-dasharray:none" />
    <path
       __timestamp="0x1722aa624ff"
       __comx="505.820"
       __comy="243.218"
       d="m 186.6135,107.99784 0.106,-0.697 -0.52,-0.298 0.143,0.008 -0.223,-0.384 -0.765,-0.753 -0.964,-0.921 -1.331,-1.227 -0.722,-0.715 -0.754,-0.745 -0.879,-0.801 -0.849,-0.773 -0.913,-0.881005 -0.914,-0.881 -0.913,-0.938 -0.988,-1.009005 -1.241,-0.948 -1.161,-0.883005 -1.162,-0.937 -1.151,-0.928 -1.088,-0.984005 -1.101,-0.995 -1.102,-1.049003 -1.103,-1.049 -1.103,-1.104 -1.102,-1.103 -1.039,-1.104 -1.039,-1.103 -0.979,-1.101 -1.036,-1.162 -1.1,-0.993 -1.038,-0.935 -0.914,-0.879 -0.942,-0.905 -0.881,-0.793 -0.852,-0.766 -0.851,-0.823 -0.898,-0.867 -0.838,-0.697 -0.805,-0.669 -0.805,-0.669 -0.787,-0.653 -1.305,-1.174 -1.197,-1.295 -1.063,-1.166 -0.831,-1.178 -0.826,-1.106 -0.861,-0.783 -1.045,-0.792 -0.944,-0.374 -1.071,-0.591 -1.17,-0.277 -1.097,-0.219 -0.916,-0.233 -0.968,-0.106 -0.565,-0.172 -0.608,-0.273 -0.588,-0.346 -0.62,-0.556 -0.901,-0.538 -0.401,-0.16 -0.603,-0.494 -1.068,-0.212 -0.903,0.327 -0.809,1.101 -0.57,1.371 1.673,0.676 0.421,-1.081 0.429,-0.236 -0.16,0.104 -0.077,0.011 0.388,0.397 0.59,0.286 0.584,0.354 0.619,0.558 0.897,0.546 0.878,0.396 0.921,0.274 1.014,0.117 0.817,0.213 1.132,0.227 0.811,0.169 0.91,0.523 0.79,0.295 0.688,0.545 0.625,0.555 0.66,0.9 0.903,1.273 1.165,1.285 1.28,1.38 1.42,1.278 0.823,0.684 0.805,0.669 0.805,0.669 0.772,0.64 0.835,0.805 0.883,0.849 0.882,0.794 0.853,0.767 0.915,0.878 0.943,0.904 1.067,0.959 1.005,0.901 0.946,1.066 1.003,1.128 1.066,1.126 1.066,1.125 1.127,1.126 1.126,1.125 1.126,1.068003 1.127,1.069 1.128,1.011005 1.141,1.022 1.202,0.967005 1.19,0.957 1.192,0.900005 1.112,0.835 0.87,0.886 0.944,0.957005 0.943,0.902 0.944,0.902 0.885,0.788 0.855,0.76 0.732,0.704 0.765,0.734 1.393,1.225 1.017,0.862 0.721,0.585 0.521,0.508 0.638,0.231 -0.272,-0.298 0.106,-0.474 z"
       id="path1093"
       inkscape:connector-curvature="0"
       style="fill:#ff0000;stroke:#ff0000;stroke-width:8.04927158;stroke-linecap:round;stroke-linejoin:round;stroke-miterlimit:4;stroke-dasharray:none" />
    <path
       __timestamp="0x1722aa647d7"
       __comx="412.534"
       __comy="174.694"
       d="m 88.1835,14.454997 -0.31,-0.02 -0.129,0.098 -0.127,-0.008 -0.438,0.392 -0.165,0.338 -0.037,0.111 0.012,0.042 -0.089,0.099 -0.087,0.214 -0.134,0.078 -0.453,0.39 -0.39,0.541 -0.354,0.291 -0.423,0.451 -0.62,0.649 -0.504,0.541 -0.768,0.757 -1.051,1.177 -0.87,1.318 -1.341,1.399 -0.704,0.861 -0.684,0.838 -0.815,1 -0.817,1.003 -0.871,1.12 -0.88,1.132 -0.88,1.244 -0.869,1.229 -0.933,1.34 -0.916,1.316 -0.978,1.259 -1.003,1.292 -0.938,1.294 -0.929,1.282 -0.929,1.282 -0.919,1.268 -0.859,1.099 -0.861,1.103 -0.86,1.048 -0.874,1.066 -0.75,0.955 -0.752,0.958 -0.751,1.014 -0.735,0.992 -0.735,0.936 -0.712,0.91 -0.714,0.742 -0.783,0.818 -0.716,0.934 -0.664,0.87 -1.222,1.426 -1.255,1.459 -1.273,1.593 -0.832,1.182 -0.983,0.994 -0.753,1.007 -0.748,0.776 -0.761,1.021 -0.82,0.946 -1.038,1.048 -0.764,1.133 -1.028,1.166 -0.653,1.279 -0.608,0.874 -0.53,0.933 -0.248,0.446 -0.15,0.3 0.201,-0.109 1.3,0.769 -0.573,1.147 0.173,-0.028 0.748,-0.372 0.166,-0.451 -0.009,-0.508 0.487,-0.109 -0.106,-0.469 -0.503,0.113 -0.752,-0.285 -0.33,0.217 0.005,-0.15 -0.322,-0.028 -1.068,1.37 1.548,0.769 0.696,-0.555 0.345,-0.591 0.248,-0.446 0.461,-0.851 0.63,-0.909 0.585,-1.173 0.954,-1.063 0.722,-1.096 0.943,-0.958 0.913,-1.06 0.725,-0.985 0.739,-0.784 0.733,-0.999 0.998,-1.012 0.901,-1.269 1.204,-1.527 1.222,-1.438 1.255,-1.471 0.698,-0.913 0.647,-0.849 0.703,-0.742 0.772,-0.818 0.774,-0.984 0.751,-0.958 0.751,-1.014 0.735,-0.992 0.735,-0.936 0.737,-0.939 0.859,-1.051 0.874,-1.069 0.873,-1.126 0.875,-1.129 0.939,-1.295 0.929,-1.282 0.929,-1.282 0.92,-1.269 0.979,-1.271 1.003,-1.304 0.942,-1.359 0.925,-1.335 0.864,-1.222 0.854,-1.208 0.853,-1.097 0.862,-1.109 0.793,-1.003 0.795,-1.006 0.678,-0.834 0.658,-0.811 1.383,-1.498 0.864,-1.356 0.931,-1.052 0.718,-0.803 0.487,-0.573 0.618,-0.688 0.32,-0.441 0.388,-0.378 0.353,-0.573 0.29,-0.279 0.361,-0.368 0.161,-0.455 0.159,-0.347 0.012,-0.404 -0.037,-0.111 -0.165,0.115 -0.19,0.169 0.121,-0.008 0.118,-0.125 -0.063,-0.02 z"
       id="path1095"
       inkscape:connector-curvature="0"
       style="fill:#000000;stroke:none;stroke-width:3;stroke-linecap:round;stroke-linejoin:round" />
    <path
       __timestamp="0x1722aa64d5c"
       __comx="416.395"
       __comy="180.029"
       d="m 88.7085,14.919997 0.091,0.487 0.118,0.006 -0.127,-0.044 0.121,0.113 -0.048,-0.364 -0.154,0.098 -0.108,0.373 -0.043,0.223 -0.026,0.111 -0.1,0.111 -0.034,0.223 -0.022,0.334 -0.019,0.614 0.095,0.339 -0.022,0.252 0.112,0.75 0.108,0.759 0.116,0.852 0.102,1.539 0.124,1.36 0.12,1.02 0.114,0.97 0.057,1.025 0.061,1.084 0.123,1.196 0.12,1.166 0.118,1.277 0.121,1.308 0.189,1.307 0.182,1.252 0.121,1.363 0.127,1.42 0.19,1.364 0.183,1.311 0.118,1.367 0.124,1.423 0.19,1.312 0.182,1.256 0.121,1.256 0.127,1.311 0.188,1.255 0.181,1.205 0.123,1.093 0.131,1.154 0.192,1.042 0.183,0.989 0.249,1.569 0.26,1.271 0.291,1.165 0.272,0.503 0.28,0.733 0.283,0.411 0.024,0.046 0.124,0.446 0.181,0.341 0.158,0.287 0.167,0.195 0.096,0.49 0.266,0.492 0.181,0.596 0.155,0.888 0.244,0.435 0.068,0.613 0.006,0.471 0.121,0.669 -0.005,0.343 v 0.669 l -0.003,0.334 10e-4,0.557 0.036,0.617 0.128,0.222 -0.021,0.14 0.124,0.334 -0.023,-0.087 0.008,0.111 0.002,0.111 -0.005,0.111 v 0.223 l 0.036,0.052 -0.131,0.221 -0.033,0.507 0.036,-0.172 -0.124,0.223 0.296,-0.401 0.672,-0.334 -0.124,0.006 -0.124,0.007 -0.495,-0.007 -0.433,0.002 -0.99,-0.111 -1.178,-0.009 -1.238,-10e-4 h -1.765 l -2.057,0.116 -1.282,0.17 -1.209,0.162 -1.333,0.106 -1.358,0.109 -1.482,0.111 -1.553,0.118 -1.491,0.29 -1.376,0.27 -1.5,0.158 -1.639,0.178 -1.513,0.412 -1.398,0.385 -1.46,0.328 -1.47,0.331 -1.408,0.275 -1.479,0.291 -1.354,0.406 -1.233,0.374 -1.232,0.208 -1.289,0.22 -1.103,0.165 -1.115,0.167 -1.114,0.167 -1.03,0.158 -1.896,-0.01 -1.61,0.004 -1.455,0.004 -1.463,0.236 -1.247,0.226 -1.25,0.222 -1.139,0.228 -1.021,0.23 -0.827,0.21 -0.599,0.098 -0.534,-0.003 h -0.247 l -0.248,0.004 -0.248,-0.007 -0.124,-0.005 -0.124,0.004 -0.124,0.002 0.285,0.081 -0.124,-0.111 h -0.124 0.101 l -0.261,-0.221 -0.248,-0.111 0.016,-0.004 -0.26,-0.224 -0.404,-0.195 -0.248,-0.111 -0.247,-0.111 -0.477,-0.183 -0.362,-0.028 h -0.247 l 0.681,0.334 0.241,0.582 -0.69,0.689 -0.518,-0.373 0.247,0.223 0.57,-0.633 -0.248,-0.223 -0.766,-0.595 -0.69,0.912 0.241,1.028 0.929,0.334 h 0.247 l -0.114,-0.028 0.018,0.04 0.247,0.111 0.248,0.112 0.092,0.028 -0.012,-10e-4 0.263,0.219 0.248,0.111 -0.013,0.002 0.597,0.446 h 0.124 l 0.124,0.111 0.532,0.081 0.124,0.002 0.124,0.004 0.124,-0.005 0.248,-0.007 0.248,0.004 h 0.247 l 0.704,-0.003 0.887,-0.125 0.907,-0.235 0.96,-0.216 1.09,-0.218 1.227,-0.224 1.23,-0.22 1.261,-0.21 1.27,0.004 1.61,0.004 2.066,-0.01 1.199,-0.177 1.114,-0.167 1.115,-0.167 1.126,-0.169 1.312,-0.226 1.368,-0.238 1.368,-0.407 1.247,-0.374 1.369,-0.266 1.44,-0.282 1.502,-0.338 1.512,-0.34 1.45,-0.395 1.335,-0.368 1.457,-0.156 1.596,-0.176 1.472,-0.287 1.357,-0.268 1.419,-0.104 1.49,-0.112 1.366,-0.114 1.392,-0.116 1.268,-0.173 1.194,-0.164 1.906,-0.107 h 1.702 l 1.238,-0.001 1.052,-0.009 0.99,0.111 0.558,0.002 0.495,-0.007 0.124,0.007 0.124,0.006 0.92,-0.334 0.296,-0.624 0.124,-0.223 0.036,-0.395 -0.033,0.061 0.117,-0.225 0.036,-0.616 v -0.223 l -0.005,-0.111 0.002,-0.111 0.008,-0.111 -0.023,-0.31 -0.124,-0.334 -0.021,-0.306 -0.12,-0.224 0.036,-0.052 0.001,-0.557 -0.003,-0.334 v -0.669 l -0.005,-0.548 -0.127,-0.668 0.006,-0.421 -0.179,-1.17 -0.251,-0.456 -0.092,-0.672 -0.315,-0.964 -0.229,-0.4 -0.152,-0.625 -0.328,-0.474 -0.089,-0.159 -0.067,-0.105 -0.124,-0.445 -0.223,-0.4 -0.213,-0.258 -0.216,-0.605 -0.223,-0.389 -0.205,-0.841 -0.236,-1.181 -0.246,-1.551 -0.188,-1.017 -0.179,-0.964 -0.117,-1.075 -0.125,-1.136 -0.19,-1.247 -0.183,-1.196 -0.121,-1.252 -0.127,-1.307 -0.189,-1.307 -0.182,-1.252 -0.124,-1.363 -0.13,-1.419 -0.188,-1.364 -0.182,-1.311 -0.121,-1.366 -0.127,-1.423 -0.19,-1.311 -0.182,-1.256 -0.126,-1.255 -0.129,-1.286 -0.128,-1.175 -0.125,-1.145 -0.063,-1.033 -0.067,-1.093 -0.133,-1.036 -0.128,-0.986 -0.124,-1.314 -0.146,-1.582 -0.131,-0.931 -0.14,-0.801 -0.135,-0.587 -0.022,-0.417 -0.153,-0.329 -0.019,-0.277 -0.022,-0.334 -0.034,-0.223 -0.1,-0.111 -0.026,-0.111 -0.043,-0.223 -0.108,0.15 0.094,-0.125 -0.048,-0.587 -0.126,-0.11 -0.127,-0.266 -0.13,0.006 0.091,0.264 z"
       id="path1097"
       inkscape:connector-curvature="0"
       style="fill:#000000;stroke:none;stroke-width:3;stroke-linecap:round;stroke-linejoin:round" />
    <path
       __timestamp="0x1722aa6533f"
       __comx="398.808"
       __comy="261.112"
       d="m 43.5995,72.089997 -0.966,-0.111 -0.205,0.111 -0.045,0.111 -10e-4,0.111 -0.021,0.334 -0.018,0.334 -0.015,0.334 -0.031,0.223 -0.011,0.669 -0.015,0.446 -0.015,0.892 -0.005,0.78 -0.021,0.78 -0.006,0.892 -10e-4,0.78 -0.023,1.114 -10e-4,1.226 -0.012,1.226 -0.01,1.672 -0.004,1.672 -0.015,1.783 v 1.672 1.928 l 0.058,1.037 0.055,0.97 -0.003,1.081 -0.002,1.141 0.062,1.308 0.06,1.255 -10e-4,1.422 -0.001,1.470003 0.059,1.582 0.058,1.558 0.058,1.781 0.059,1.801 0.125,1.857 0.123,1.819 0.04,1.317 0.041,1.337 0.043,1.373 0.181,1.986 0.176,1.931 0.08,1.355 0.082,1.375 0.082,1.374 0.081,1.375 0.081,1.375 0.083,1.408 0.166,1.408 0.163,1.375 0.162,1.368 0.163,1.517 0.164,1.523 0.165,1.532 0.204,1.681 0.203,1.672 0.202,1.669 0.206,1.743 0.206,1.746 0.203,1.718 0.122,1.755 0.124,1.783 0.124,1.792 0.162,1.941 0.162,1.932 0.161,1.92 0.122,1.883 0.122,1.895 0.122,1.895 0.122,1.895 0.122,1.895 0.122,1.895 0.122,1.858 0.122,1.858 0.122,1.861 0.122,1.712 0.121,1.709 0.121,1.695 0.08,1.695 0.081,1.709 0.082,1.73 0.125,1.507 0.124,1.486 0.123,1.473 0.082,1.325 0.083,1.337 0.082,1.321 0.059,1.767 0.06,1.784 0.06,1.728 0.059,1.706 v 1.706 1.727 1.839 1.839 l -0.003,1.337 -0.003,1.337 -0.003,1.337 v 1.449 1.449 l 0.001,1.465 0.042,1.539 0.041,1.523 0.042,1.537 0.083,1.649 0.083,1.635 0.083,1.647 0.125,1.758 0.124,1.746 0.124,1.747 0.121,1.71 0.121,1.709 0.121,1.709 0.123,1.709 0.123,1.709 0.123,1.719 0.166,1.867 0.165,1.857 0.164,1.846 0.121,1.771 0.122,1.783 0.123,1.797 0.165,1.797 0.164,1.783 0.163,1.771 0.123,1.697 0.124,1.709 0.125,1.726 0.167,1.652 0.165,1.634 0.163,1.608 0.082,1.422 0.084,1.449 0.085,1.472 0.187,1.974 0.186,1.958 0.187,1.735 0.185,1.716 0.123,1.382 0.125,1.41 0.123,1.076 0.126,1.1 0.264,1.399 0.1,0.279 -0.113,0.312 0.005,0.368 -0.108,0.447 -0.135,0.734 -0.13,1.164 -0.132,1.241 -0.118,1.454 -0.128,1.389 -10e-4,1.282 0.005,1.003 -0.002,0.669 0.002,0.669 10e-4,0.223 0.732,1.199 1.405,-0.314 0.42,-0.38 0.532,-0.596 0.665,-0.723 0.702,-1.008 0.361,-0.654 0.546,-0.834 0.101,-0.733 v -0.475 l -0.227,-0.497 v -0.557 h -1.357 v 0.557 l -0.227,0.172 -0.248,0.193 -0.146,0.381 -0.445,0.503 -0.382,0.684 -0.536,0.775 -0.573,0.615 -0.458,0.518 -0.323,0.288 1.157,-0.091 0.732,0.976 0.001,-0.223 0.002,-0.669 -0.002,-0.669 0.005,-1.003 -10e-4,-1.169 0.12,-1.285 0.13,-1.443 0.116,-1.211 0.118,-1.064 0.112,-0.604 0.14,-0.668 0.005,-0.301 0.135,-0.58 -0.148,-0.835 -0.231,-1.276 -0.121,-1.018 -0.125,-1.041 -0.122,-1.376 -0.125,-1.404 -0.187,-1.739 -0.185,-1.72 -0.186,-1.943 -0.184,-1.927 -0.08,-1.426 -0.082,-1.449 -0.083,-1.476 -0.167,-1.661 -0.165,-1.634 -0.163,-1.617 -0.122,-1.691 -0.124,-1.709 -0.125,-1.721 -0.167,-1.795 -0.166,-1.783 -0.165,-1.769 -0.125,-1.769 -0.126,-1.783 -0.127,-1.795 -0.166,-1.869 -0.165,-1.857 -0.164,-1.847 -0.124,-1.699 -0.125,-1.709 -0.125,-1.709 -0.127,-1.709 -0.127,-1.709 -0.126,-1.708 -0.124,-1.745 -0.124,-1.746 -0.123,-1.734 -0.082,-1.622 -0.083,-1.635 -0.082,-1.62 -0.041,-1.509 -0.041,-1.523 -0.041,-1.507 0.001,-1.432 v -1.449 -1.449 l -0.003,-1.337 -0.003,-1.337 -0.003,-1.337 v -1.839 -1.839 -1.727 -1.749 l -0.065,-1.749 -0.064,-1.727 -0.064,-1.782 -0.065,-1.799 -0.083,-1.353 -0.083,-1.337 -0.083,-1.35 -0.125,-1.499 -0.124,-1.486 -0.122,-1.465 -0.083,-1.688 -0.084,-1.709 -0.085,-1.723 -0.127,-1.723 -0.126,-1.709 -0.126,-1.705 -0.126,-1.854 -0.126,-1.857 -0.126,-1.856 -0.125,-1.894 -0.126,-1.894 -0.126,-1.894 -0.125,-1.894 -0.125,-1.894 -0.126,-1.906 -0.169,-1.943 -0.168,-1.931 -0.168,-1.922 -0.123,-1.774 -0.124,-1.783 -0.126,-1.811 -0.209,-1.774 -0.206,-1.746 -0.207,-1.749 -0.211,-1.674 -0.21,-1.671 -0.209,-1.663 -0.165,-1.514 -0.166,-1.523 -0.167,-1.53 -0.168,-1.381 -0.168,-1.374 -0.164,-1.341 -0.082,-1.341 -0.084,-1.374 -0.084,-1.374 -0.084,-1.374 -0.084,-1.374 -0.085,-1.394 -0.195,-1.969 -0.191,-1.914 -0.04,-1.302 -0.041,-1.337 -0.042,-1.358 -0.125,-1.859 -0.123,-1.821 -0.065,-1.765 -0.066,-1.786 -0.065,-1.563 -0.065,-1.538 -10e-4,-1.427003 -0.001,-1.475 -0.064,-1.308 -0.062,-1.255 -0.002,-1.088 -0.003,-1.148 -0.069,-1.036 -0.066,-0.969 v -1.861 -1.672 l -0.015,-1.783 -0.004,-1.672 -0.01,-1.672 -0.012,-1.226 -0.001,-1.226 -0.023,-1.114 -0.001,-0.78 -0.006,-0.892 -0.021,-0.78 -0.005,-0.78 -0.015,-0.892 -0.015,-0.446 -0.011,-0.669 -0.031,-0.223 -0.015,-0.334 -0.018,-0.334 -0.021,-0.334 -0.001,-0.111 -0.045,-0.111 -0.205,-0.111 -0.966,0.111 z"
       id="path1099"
       inkscape:connector-curvature="0"
       style="fill:#000000;stroke:none;stroke-width:3;stroke-linecap:round;stroke-linejoin:round" />
    <path
       __timestamp="0x1722aa6596c"
       __comx="513.999"
       __comy="207.938"
       d="m 87.2335,14.463997 0.404,-0.003 0.352,-0.089 0.724,-0.198 0.522,-0.667 0.266,-0.205 0.428,-0.241 0.398,-0.415 0.352,-0.15 0.277,-0.183 0.253,-0.062 0.545,-0.143 0.519,-0.156 0.736,-0.051 1.219,-0.086 1.236,-0.084 1.351,-0.101 1.562,-0.099 1.445,0.029 1.734,0.008 1.053,0.004 1.022,0.004 1.083,0.063 1.044,0.059 1.293,0.216 1.343,0.222 1.403,0.287 1.394,0.285 1.582,0.387 1.619,0.396 1.744,0.393 1.776,0.399 1.837,0.293 1.801,0.287 1.925,0.283 1.919,0.282 1.919,0.279 1.96,0.284 1.403,0.117 1.362,0.113 1.347,0.112 1.388,0.15 1.403,0.151 1.388,0.15 1.43,0.185 1.444,0.187 1.512,0.194 1.512,0.041 1.445,0.037 1.446,0.037 1.528,0.037 1.527,0.037 1.56,0.038 1.518,-0.038 1.486,-0.037 1.502,-0.038 1.502,-0.075 1.486,-0.074 1.537,-0.078 1.496,-0.191 1.445,-0.186 1.467,-0.189 1.384,-0.226 1.362,-0.223 1.396,-0.229 1.397,-0.302 1.363,-0.295 1.375,-0.297 1.416,-0.338 1.403,-0.335 1.403,-0.335 1.403,-0.334 1.403,-0.334 1.371,-0.327 1.37,-0.254 1.403,-0.26 1.415,-0.262 1.93,-0.394 1.908,-0.389 1.785,-0.331 1.765,-0.328 1.579,-0.218 1.621,-0.225 1.436,-0.225 1.454,-0.2279998 1.393,-0.282 1.342,-0.272 1.279,-0.221 1.311,-0.227 1.188,-0.225 1.146,-0.218 1.146,-0.163 1.153,-0.164 1.029,-0.109 1.025,-0.11 1.749,-0.111 1.745,-0.224 1.376,-0.113 1.492,-0.218 1.139,-0.106 1.264,-10e-4 1.033,-0.133 0.897,-0.239 0.599,-0.109 0.651,-0.153 0.798,-0.37 0.204,-0.197 0.678,-0.267 0.691,-0.719 0.442,-0.395 0.619,-0.557 0.372,-0.334 0.302,-0.276 0.495,-0.335 0.161,-0.151 0.138,-0.047 0.372,-0.223 -0.087,0.009 0.363,0.013 0.496,-0.109 0.474,0.008 h 0.743 l 0.867,0.004 0.917,-0.003 0.925,0.106 1.13,0.101 1.175,0.104 1.12,0.224 1.417,0.118 0.855,0.091 1.186,0.349 1.181,0.008 h 0.867 l 1.091,-0.019 0.731,-0.253 0.514,-0.085 0.504,-0.096 0.569,-0.003 0.371,-0.116 0.182,0.014 0.248,-10e-4 0.124,-0.011 h 0.371 l 0.619,-10e-4 0.537,-0.003 0.727,0.086 0.843,0.182 0.747,0.288 0.681,0.306 0.698,0.344 0.488,0.459 0.372,0.334 0.891,0.688 0.703,0.088 0.248,-0.003 h 0.248 0.247 l 0.124,-0.004 -0.332,-0.082 -0.588,-0.556 0.269,0.49 0.565,0.293 -0.272,-0.131 -0.179,-0.322 0.004,0.109 0.128,0.109 -0.106,-0.399 0.01,0.446 -0.002,0.459 -0.124,0.78 -0.002,1.038 -0.125,1.168 -0.13,1.3999998 -10e-4,1.061 v 1.003 1.059 1.059 l 10e-4,1.337 0.001,1.363 0.062,1.53 0.061,1.502 0.062,1.669 0.064,1.708 0.188,1.987 0.185,1.943 0.12,1.479 0.12,1.486 0.124,1.523 0.252,1.782 0.248,1.746 0.249,1.752 0.29,1.901 0.289,1.895 0.287,1.883 0.215,1.605 0.217,1.616 0.217,1.616 0.217,1.622 0.249,1.733 0.248,1.727 0.248,1.727 0.249,1.738 0.28,1.738 0.278,1.727 0.278,1.727 0.277,1.721 0.278,1.833 0.279,1.839 0.279,1.839 0.28,1.849 0.311,1.849 0.31,1.839 0.31,1.839 0.308,1.83 0.275,1.802 0.276,1.811 0.276,1.811 0.276,1.81 0.278,1.837 0.278,1.839 0.278,1.839 0.28,1.848 0.28,1.681 0.279,1.672 0.279,1.672 0.281,1.683 0.281,1.516003 0.279,1.504 0.279,1.504 0.275,1.484 0.284,1.875 0.288,1.895 0.291,1.915 0.333,1.803 0.33,1.783 0.323,1.743 0.201,1.669 0.206,1.709 0.207,1.714 0.207,1.603 0.206,1.597 0.211,1.632 0.292,1.596 0.286,1.561 0.278,1.511 0.159,1.51 0.166,1.56 0.166,1.564 0.166,1.489 0.165,1.486 0.17,1.521 0.253,1.521 0.248,1.486 0.24,1.436 0.12,1.361 0.125,1.412 0.125,1.412 0.123,1.412 0.123,1.412 0.128,1.457 0.316,1.995 0.306,1.926 0.162,1.35 0.165,1.374 0.165,1.375 0.163,1.375 0.163,1.375 0.169,1.419 0.38,1.994 0.365,1.908 0.159,1.295 0.165,1.337 0.168,1.36 0.313,1.973 0.312,1.967 0.252,1.354 0.249,1.337 0.245,1.315 0.203,1.353 0.206,1.374 0.204,1.36 0.246,1.936 0.25,1.97 0.313,1.97 0.302,1.892 0.116,1.781 0.122,1.84 0.129,1.784 0.128,1.76 0.061,1.761 0.062,1.782 0.062,1.838 0.061,1.817 0.005,1.65 0.005,1.672 -0.001,1.504 -10e-4,1.476 -0.061,1.365 -0.06,1.357 -0.121,1.19 -0.12,1.19 -0.182,1.134 -0.188,1.17 -0.182,1.171 -0.168,1.099 -0.292,1.044 -0.322,1.164 -0.258,1.332 -0.253,1.311 -0.186,1.312 -0.183,1.289 -0.189,1.4 -0.191,1.421 -0.127,1.421 -0.126,1.419 -0.063,1.307 -0.062,1.279 -0.064,1.167 -0.066,1.204 0.002,1.093 0.002,1.059 v 1.114 1.148 l 0.063,1.204 0.063,1.195 0.127,1.362 0.123,1.307 0.058,1.363 0.061,1.417 0.125,1.528 0.122,1.478 0.061,1.478 0.062,1.509 0.061,1.286 0.061,1.286 0.064,1.119 0.062,1.079 v 1.901 l 0.124,1.894 0.004,1.853 -0.003,1.895 10e-4,1.722 0.124,1.56 -0.003,1.152 0.125,0.891 -0.003,0.692 v 0.557 l 0.007,0.446 0.018,0.671 0.266,0.755 0.119,0.871 0.375,1.154 0.23,1.139 0.248,1.337 0.231,1.11 0.002,1.098 -0.004,1.003 v 1.003 0.78 l -0.004,0.892 0.007,0.557 v 0.78 l 0.005,0.557 -0.002,0.557 0.012,0.617 0.124,0.446 -10e-4,0.446 0.127,0.445 -0.012,0.386 0.007,0.446 -10e-4,0.111 -0.004,0.223 0.115,-0.4 0.574,-0.551 -0.183,-0.069 -0.496,0.109 -0.852,-0.008 h -1.238 l -1.324,-0.008 -1.857,-0.114 h -1.989 l -1.147,-0.055 -1.179,-0.056 -1.303,-0.056 -1.28,-0.055 -1.466,-0.11 -1.513,-0.113 -1.761,-0.057 -1.754,-0.056 h -1.878 -1.858 l -1.403,-0.003 -1.403,-0.003 -1.388,-0.003 -1.512,-0.036 -1.527,-0.037 -1.543,-0.037 h -1.584 -1.568 -1.554 l -1.595,-0.037 -1.61,-0.037 -1.61,-0.037 -1.651,-0.036 -1.651,-0.036 -1.636,-0.036 -1.595,-0.075 -1.61,-0.075 -1.624,-0.076 -1.583,-0.038 -1.569,-0.037 -1.569,-0.037 -1.61,-0.037 -1.61,-0.037 -1.594,-0.037 -1.553,-0.077 -1.568,-0.077 -1.599,-0.079 h -1.599 -1.569 -1.569 -1.527 -1.527 -1.527 -1.486 -1.486 -1.486 l -1.403,0.001 -1.403,10e-4 -1.507,0.005 -1.465,0.234 -1.362,0.222 -1.379,0.225 -1.379,0.263 -1.362,0.26 -1.421,0.273 -1.462,0.424 -1.403,0.409 -1.376,0.401 -1.5,0.362 -1.528,0.369 -1.525,0.368 -1.4,0.336 -1.403,0.336 -1.344,0.324 -1.261,0.176 -1.321,0.186 -1.33,0.187 -1.804,0.281 -1.766,0.275 -1.518,0.17 -1.504,0.17 -1.381,0.052 -1.425,0.055 -1.363,0.056 -1.336,0.055 h -1.151 -1.146 l -1.146,-0.058 -1.206,-0.06 h -1.145 l -1.115,0.001 -1.946,10e-4 -1.981,-0.111 -1.893,-0.003 -1.61,-0.003 h -1.61 l -1.562,0.001 -1.438,-0.117 -1.49,-0.112 -1.497,-0.098 -1.702,-0.44 -1.942,-0.235 -1.892,-0.231 -1.772,-0.114 -1.784,-0.105 -1.818,-0.337 -1.89,-0.224 -1.688,-0.216 -1.702,-0.329 -1.866,-0.334 -1.821,-0.33 -1.774,-0.425 -1.712,-0.551 -1.594,-0.448 -1.693,-0.579 -1.701,-0.241 -1.649,-0.317 -1.644,-0.453 -1.701,-0.241 -1.734,-0.223 -1.604,-0.222 -1.615,-0.232 -1.734,-0.221 -1.644,-0.227 -1.486,-0.111 -1.606,-0.218 -1.393,-0.117 -1.12,-0.096 -1.169,-0.32 -1.046,-0.212 -0.853,-0.326 -1.017,-0.231 -0.991,-0.334 -1.136,-0.25 -1.129,-0.117 -1.115,-0.223 -1.185,-0.12 -1.303,-0.123 -1.174,0.005 h -1.238 -0.991 l -1.056,0.005 -1.198,0.115 -0.946,0.123 -1.117,0.252 -1.119,0.37 -0.968,0.443 -1.033,0.307 -1.162,0.35 -0.864,0.342 -0.583,0.174 -0.917,0.099 -0.401,0.098 -0.378,-0.11 -0.889,-0.003 -0.521,0.004 -0.743,-0.111 -0.767,10e-4 -0.991,-0.111 -1.559,-0.002 -1.238,0.006 -1.436,-0.007 -1.088,0.123 -0.767,0.115 -0.79,0.119 -0.398,0.107 -0.816,0.086 -0.114,0.137 -0.106,0.044 -0.721,1.646 1.405,0.43 h 0.743 v -1.653 h -0.743 l 0.662,0.43 -0.473,1.423 0.141,0.044 0.134,-0.085 0.175,0.086 0.593,-0.116 0.696,-0.104 0.719,-0.108 0.894,-0.099 1.289,-0.007 1.238,0.006 1.413,-0.002 0.991,0.111 0.719,10e-4 0.743,0.111 0.717,0.004 0.597,-0.003 0.612,0.113 0.837,-0.125 1.064,-0.124 0.903,-0.272 0.87,-0.327 1.066,-0.319 1.196,-0.362 1.014,-0.448 0.863,-0.299 0.864,-0.194 0.788,-0.1 1.031,-0.108 0.925,0.005 h 0.991 1.238 l 1.055,0.005 1.173,0.1 1.044,0.103 1.115,0.223 1.099,0.105 0.845,0.195 0.991,0.334 0.964,0.215 0.881,0.342 1.182,0.234 1.307,0.349 1.356,0.127 1.331,0.105 1.614,0.228 1.486,0.111 1.575,0.219 1.733,0.224 1.604,0.214 1.616,0.224 1.734,0.223 1.519,0.204 1.576,0.438 1.818,0.351 1.519,0.204 1.526,0.536 1.626,0.444 1.755,0.563 1.941,0.466 1.895,0.339 1.849,0.335 1.766,0.34 1.779,0.229 1.825,0.221 1.897,0.331 1.931,0.118 1.695,0.109 1.822,0.215 1.773,0.211 1.766,0.451 1.723,0.125 1.482,0.111 1.535,0.105 1.658,10e-4 h 1.61 l 1.61,-0.003 1.822,-0.003 1.981,0.111 2.017,10e-4 1.115,0.001 h 1.084 l 1.146,0.051 1.206,0.053 h 1.206 1.202 l 1.388,-0.057 1.361,-0.056 1.423,-0.057 1.467,-0.059 1.592,-0.165 1.578,-0.164 1.825,-0.282 1.787,-0.277 1.312,-0.184 1.321,-0.186 1.38,-0.196 1.463,-0.345 1.404,-0.332 1.407,-0.333 1.53,-0.375 1.527,-0.374 1.554,-0.381 1.431,-0.416 1.403,-0.409 1.345,-0.393 1.303,-0.247 1.362,-0.26 1.346,-0.257 1.345,-0.221 1.362,-0.224 1.259,-0.212 1.3,0.005 1.403,10e-4 1.403,0.001 h 1.486 1.486 1.486 1.527 1.527 1.527 1.569 1.569 1.538 l 1.538,0.07 1.569,0.071 1.584,0.072 1.625,0.038 1.61,0.037 1.609,0.037 1.568,0.037 1.569,0.037 1.554,0.037 1.596,0.073 1.61,0.073 1.625,0.074 1.666,0.038 1.651,0.038 1.651,0.038 1.609,0.037 1.61,0.037 1.624,0.037 h 1.583 1.568 1.553 l 1.512,0.037 1.527,0.038 1.543,0.038 1.419,-0.003 1.403,-0.003 1.403,-0.003 h 1.858 1.837 l 1.713,0.055 1.707,0.055 1.459,0.11 1.506,0.113 1.32,0.057 1.297,0.056 1.174,0.056 1.206,0.057 h 1.973 l 1.857,0.109 1.4,-0.008 h 1.238 l 1.129,-0.008 0.495,-0.114 0.808,-0.069 0.821,-0.773 0.115,-0.623 -0.004,-0.223 -10e-4,-0.111 0.007,-0.446 -0.012,-0.728 -0.12,-0.446 -0.001,-0.446 -0.124,-0.446 0.012,-0.274 -0.002,-0.557 0.005,-0.557 v -0.78 l 0.007,-0.557 -0.004,-0.892 v -0.78 -1.003 l -0.004,-1.003 0.002,-1.353 -0.265,-1.342 -0.248,-1.337 -0.265,-1.313 -0.369,-1.075 -0.129,-0.912 -0.229,-0.583 0.018,-0.221 0.007,-0.446 v -0.557 l -0.003,-0.868 -0.122,-0.892 -0.003,-1.077 -0.124,-1.56 10e-4,-1.621 -0.003,-1.895 0.004,-1.936 -0.124,-1.894 v -1.888 l -0.062,-1.15 -0.06,-1.11 -0.063,-1.277 -0.063,-1.277 -0.062,-1.5 -0.063,-1.531 -0.126,-1.531 -0.122,-1.481 -0.063,-1.369 -0.066,-1.423 -0.125,-1.368 -0.12,-1.312 -0.06,-1.145 -0.061,-1.136 v -1.081 -1.114 l 0.002,-1.059 0.002,-1.025 0.058,-1.136 0.059,-1.173 0.062,-1.284 0.06,-1.256 0.122,-1.367 0.121,-1.365 0.181,-1.365 0.183,-1.386 0.189,-1.274 0.185,-1.251 0.242,-1.252 0.237,-1.231 0.297,-1.065 0.327,-1.185 0.203,-1.241 0.19,-1.17 0.184,-1.17 0.189,-1.207 0.128,-1.262 0.127,-1.262 0.064,-1.429 0.063,-1.422 -10e-4,-1.533 -10e-4,-1.504 0.005,-1.672 0.005,-1.693 -0.062,-1.861 -0.062,-1.84 -0.062,-1.784 -0.063,-1.805 -0.12,-1.806 -0.119,-1.782 -0.126,-1.837 -0.131,-1.897 -0.317,-2.008 -0.307,-1.93 -0.245,-1.93 -0.25,-1.965 -0.209,-1.389 -0.206,-1.374 -0.21,-1.396 -0.251,-1.359 -0.247,-1.337 -0.244,-1.321 -0.307,-1.934 -0.306,-1.928 -0.162,-1.315 -0.165,-1.337 -0.171,-1.379 -0.378,-1.992 -0.363,-1.906 -0.161,-1.33 -0.167,-1.374 -0.167,-1.374 -0.165,-1.374 -0.165,-1.374 -0.168,-1.399 -0.313,-1.975 -0.303,-1.905 -0.12,-1.366 -0.125,-1.412 -0.125,-1.412 -0.123,-1.412 -0.123,-1.412 -0.128,-1.462 -0.255,-1.536 -0.248,-1.486 -0.242,-1.451 -0.161,-1.451 -0.165,-1.486 -0.165,-1.483 -0.164,-1.557 -0.165,-1.56 -0.171,-1.61 -0.3,-1.609 -0.292,-1.56 -0.286,-1.525 -0.202,-1.562 -0.207,-1.597 -0.206,-1.592 -0.206,-1.704 -0.206,-1.709 -0.212,-1.749 -0.338,-1.823 -0.331,-1.783 -0.327,-1.763 -0.287,-1.874 -0.29,-1.894 -0.294,-1.914 -0.282,-1.525 -0.279,-1.504 -0.279,-1.504 -0.277,-1.493003 -0.277,-1.66 -0.279,-1.672 -0.279,-1.672 -0.277,-1.662 -0.278,-1.829 -0.279,-1.839 -0.279,-1.839 -0.279,-1.84 -0.281,-1.812 -0.281,-1.811 -0.281,-1.811 -0.283,-1.819 -0.311,-1.848 -0.31,-1.839 -0.31,-1.839 -0.308,-1.829 -0.277,-1.828 -0.279,-1.839 -0.279,-1.839 -0.28,-1.845 -0.28,-1.733 -0.279,-1.727 -0.279,-1.727 -0.277,-1.716 -0.246,-1.716 -0.247,-1.727 -0.247,-1.727 -0.247,-1.722 -0.216,-1.61 -0.217,-1.616 -0.217,-1.616 -0.218,-1.627 -0.291,-1.906 -0.289,-1.895 -0.288,-1.888 -0.247,-1.739 -0.248,-1.746 -0.243,-1.71 -0.124,-1.449 -0.127,-1.486 -0.128,-1.493 -0.187,-1.958 -0.183,-1.914 -0.06,-1.635 -0.062,-1.674 -0.063,-1.507 -0.062,-1.479 10e-4,-1.312 0.001,-1.337 v -1.059 -1.059 -1.003 l -0.001,-0.945 0.117,-1.2739998 0.123,-1.284 -0.002,-0.968 0.124,-0.78 -0.002,-0.655 0.01,-0.446 -0.106,-0.622 -0.119,-0.114 0.004,-0.114 -0.427,-0.545 -0.52,-0.354 0.317,0.293 0.269,0.267 -0.836,-0.779 -0.579,-0.082 -0.124,-0.004 h -0.247 -0.248 l -0.248,-0.003 0.208,0.088 -0.1,-0.204 -0.371,-0.334 -0.75,-0.656 -1.035,-0.548 -0.805,-0.362 -0.987,-0.38000001 -1.139,-0.264 -1.007,-0.137 -0.702,-0.003 -0.619,-0.001 h -0.371 l -0.124,-0.011 -0.248,-0.001 -0.561,0.014 -0.372,0.107 -0.421,-0.003 -0.734,0.127 -0.725,0.138 -0.507,0.19300001 -0.643,-0.019 h -0.867 l -0.801,0.008 -1.043,-0.31900001 -1.126,-0.132 -1.307,-0.105 -1.109,-0.222 -1.302,-0.119 -1.099,-0.122 -1.056,-0.117 -1.064,-0.00299999762 -0.867,0.00399999762 h -0.743 l -0.764,0.008 -0.495,0.114 -0.627,0.013 -0.582,0.232 -0.371,0.223 -0.357,0.175 -0.335,0.29500001 -0.496,0.334 -0.441,0.393 -0.371,0.334 -0.619,0.557 -0.548,0.496 -0.3,0.395 -0.56,0.179 -0.291,0.249 -0.193,0.076 -0.339,0.07 -0.639,0.113 -0.836,0.207 -0.701,0.09 -1.213,-10e-4 -1.338,0.117 -1.48,0.228 -1.348,0.11 -1.722,0.222 -1.719,0.112 -1.08,0.113 -1.076,0.113 -1.2,0.17 -1.207,0.172 -1.207,0.228 -1.165,0.221 -1.289,0.219 -1.321,0.225 -1.382,0.286 -1.331,0.276 -1.394,0.218 -1.412,0.221 -1.598,0.221 -1.64,0.227 -1.826,0.341 -1.806,0.337 -1.93,0.391 -1.908,0.386 -1.392,0.258 -1.403,0.2599998 -1.436,0.267 -1.436,0.342 -1.403,0.334 -1.403,0.334 -1.404,0.334 -1.404,0.334 -1.391,0.331 -1.349,0.297 -1.362,0.3 -1.328,0.293 -1.328,0.217 -1.362,0.223 -1.34,0.219 -1.422,0.183 -1.445,0.186 -1.394,0.18 -1.435,0.071 -1.486,0.074 -1.47,0.074 -1.469,0.037 -1.486,0.037 -1.453,0.037 -1.495,-0.037 -1.527,-0.037 -1.526,-0.037 -1.444,-0.037 -1.445,-0.037 -1.377,-0.034 -1.378,-0.177 -1.445,-0.184 -1.459,-0.186 -1.418,-0.148 -1.404,-0.146 -1.419,-0.147 -1.378,-0.111 -1.362,-0.11 -1.322,-0.106 -1.879,-0.273 -1.919,-0.278 -1.92,-0.275 -1.914,-0.274 -1.79,-0.27 -1.754,-0.264 -1.691,-0.381 -1.723,-0.387 -1.6,-0.384 -1.638,-0.393 -1.454,-0.2719998 -1.445,-0.27 -1.382,-0.224 -1.432,-0.23 -1.184,-0.053 -1.146,-0.048 -1.083,0.004 -1.053,0.004 -1.734,0.008 -1.527,0.029 -1.657,0.124 -1.373,0.122 -1.24,0.139 -1.257,0.137 -0.998,0.172 -0.719,0.2899998 -0.693,0.303 -0.49,0.384 -0.218,0.263 -0.391,0.295 -0.345,0.477 -0.315,0.205 -0.477,0.464 -0.221,0.448 -0.267,0.024 -0.391,0.134 -0.339,0.22 z"
       id="path1101"
       inkscape:connector-curvature="0"
       style="fill:#000000;stroke:none;stroke-width:3;stroke-linecap:round;stroke-linejoin:round" />
  </g>
</svg>
