<?xml version="1.0" encoding="UTF-8" standalone="no"?>
<!-- Created with Inkscape (http://www.inkscape.org/) -->

<svg
   xmlns:dc="http://purl.org/dc/elements/1.1/"
   xmlns:cc="http://creativecommons.org/ns#"
   xmlns:rdf="http://www.w3.org/1999/02/22-rdf-syntax-ns#"
   xmlns:svg="http://www.w3.org/2000/svg"
   xmlns="http://www.w3.org/2000/svg"
   xmlns:xlink="http://www.w3.org/1999/xlink"
   xmlns:sodipodi="http://sodipodi.sourceforge.net/DTD/sodipodi-0.dtd"
   xmlns:inkscape="http://www.inkscape.org/namespaces/inkscape"
   width="320"
   height="320"
   viewBox="0 0 84.666664 84.666664"
   version="1.1"
   id="svg8"
   inkscape:version="0.92.3 (2405546, 2018-03-11)"
   sodipodi:docname="agreement.svg">
  <defs
     id="defs2">
    <inkscape:perspective
       sodipodi:type="inkscape:persp3d"
       inkscape:vp_x="0 : 2.3337374 : 1"
       inkscape:vp_y="1981.3302 : 3976.2737 : 1"
       inkscape:vp_z="3981.3301 : 2.3337374 : 1"
       inkscape:persp3d-origin="2000 : 1333.3333 : 1"
       id="perspective1023" />
    <linearGradient
       inkscape:collect="always"
       id="linearGradient872">
      <stop
         style="stop-color:#ffffff;stop-opacity:0.50196081"
         offset="0"
         id="stop868" />
      <stop
         style="stop-color:#f6f6fb;stop-opacity:0"
         offset="1"
         id="stop870" />
    </linearGradient>
    <clipPath
       clipPathUnits="userSpaceOnUse"
       id="clipPath1121">
      <path
         style="opacity:0.85;vector-effect:none;fill:url(#linearGradient1125);fill-opacity:1;stroke:none;stroke-width:0.26458332;stroke-linecap:butt;stroke-linejoin:miter;stroke-miterlimit:4;stroke-dasharray:none;stroke-dashoffset:0;stroke-opacity:1;paint-order:markers stroke fill"
         d="m 1985,-1980 h 30 c 2.77,0 5,2.23 5,5 v 30 c 0,2.77 -2.23,5 -5,5 h -30 c -2.77,0 -5,-2.23 -5,-5 v -30 c 0,-2.77 2.23,-5 5,-5 z"
         id="path1123"
         inkscape:connector-curvature="0" />
    </clipPath>
    <linearGradient
       inkscape:collect="always"
       xlink:href="#linearGradient872"
       id="linearGradient1125"
       gradientUnits="userSpaceOnUse"
       gradientTransform="translate(1944.6492,-2072.2806)"
       x1="75.350754"
       y1="132.28059"
       x2="55.350754"
       y2="92.280586" />
  </defs>
  <sodipodi:namedview
     id="base"
     pagecolor="#ffffff"
     bordercolor="#666666"
     borderopacity="1.0"
     inkscape:pageopacity="0.0"
     inkscape:pageshadow="2"
     inkscape:zoom="1.3828125"
     inkscape:cx="160"
     inkscape:cy="160"
     inkscape:document-units="mm"
     inkscape:current-layer="layer3"
     showgrid="true"
     fit-margin-top="0"
     fit-margin-left="0"
     fit-margin-right="0"
     fit-margin-bottom="0"
     inkscape:snap-bbox="true"
     inkscape:snap-bbox-edge-midpoints="true"
     inkscape:bbox-nodes="true"
     inkscape:window-width="1920"
     inkscape:window-height="1080"
     inkscape:window-x="1920"
     inkscape:window-y="0"
     inkscape:window-maximized="1"
     inkscape:snap-page="true"
     units="px"
     showguides="false">
    <inkscape:grid
       type="xygrid"
       id="grid870"
       dotted="true"
       empspacing="2" />
  </sodipodi:namedview>
  <metadata
     id="metadata5">
    <rdf:RDF>
      <cc:Work
         rdf:about="">
        <dc:format>image/svg+xml</dc:format>
        <dc:type
           rdf:resource="http://purl.org/dc/dcmitype/StillImage" />
        <dc:title></dc:title>
      </cc:Work>
    </rdf:RDF>
  </metadata>
  <g
     inkscape:label="Layer 1"
     inkscape:groupmode="layer"
     id="layer1"
     transform="translate(-2015.3507,1932.3861)"
     style="display:inline" />
  <g
     inkscape:groupmode="layer"
     id="layer2"
     inkscape:label="P_"
     style="display:inline"
     transform="translate(-1980,2024.6667)" />
  <g
     inkscape:groupmode="layer"
     id="layer3"
     inkscape:label="grad"
     style="display:inline"
     transform="translate(-1980,2024.6667)">
    <path
       style="opacity:1;vector-effect:none;fill:#483d8b;fill-opacity:1;stroke:none;stroke-width:7.19999933;stroke-linecap:butt;stroke-linejoin:round;stroke-miterlimit:4;stroke-dasharray:none;stroke-dashoffset:0;stroke-opacity:1;paint-order:markers stroke fill"
       d="M 30.236328 0 C 13.485462 0 -4.7369516e-15 13.485462 0 30.236328 L 0 289.76367 C 0 306.51454 13.485462 320 30.236328 320 L 289.76367 320 C 306.51454 320 320 306.51454 320 289.76367 L 320 30.236328 C 320 13.485462 306.51454 -4.7369516e-15 289.76367 0 L 30.236328 0 z M 186.08398 63.400391 C 191.39728 63.369103 197.44552 64.451565 201.73633 66.365234 C 204.04751 67.386463 209.63085 71.084909 213.23047 73.978516 C 227.62782 85.552185 234.59941 88.750663 246.54688 89.259766 C 252.19651 89.501655 253.3454 89.315899 273.43359 84.966797 L 278.78516 83.808594 L 279.80273 86.091797 C 284.37218 96.340364 287.98436 108.88052 289.88281 121.08008 C 290.69428 126.29205 290.79864 128.46966 290.79297 139.97266 C 290.79297 149.92982 290.62988 154.05668 290.11133 157.59961 C 289.74093 160.14361 289.3528 162.30931 289.25 162.41211 C 289.15173 162.51038 279.69706 164.9364 268.25 167.79297 L 247.43555 172.98633 L 244.75586 170.51562 C 236.84342 163.21585 231.69801 158.44078 225.63867 152.77148 C 221.937 149.30793 217.09037 144.82749 214.86914 142.81641 C 211.32394 139.60645 204.31312 133.13813 196.57227 125.93359 C 195.23167 124.68597 193.03749 122.67221 191.69727 121.45898 C 190.35742 120.245 187.9815 118.04792 186.41602 116.57617 C 179.72361 110.28364 173.26697 104.42188 173.02734 104.42188 C 172.88372 104.42188 166.79008 107.40423 159.48047 111.04883 C 146.05143 117.74502 136.82632 121.8812 130.59766 124 C 118.56062 128.09398 106.36583 126.77117 100.83789 120.77344 C 97.064788 116.68021 95.782087 111.18548 96.878906 103.80859 L 97.339844 100.72461 L 99.623047 99.576172 C 100.87898 98.944235 104.01 97.509994 106.58008 96.386719 C 109.14978 95.263821 112.80624 93.613869 114.70508 92.722656 C 116.60467 91.83031 121.17673 89.730908 124.86328 88.054688 C 128.55059 86.379223 140.98157 80.719523 152.49023 75.476562 C 173.58416 65.866358 176.71108 64.591461 181.10742 63.8125 C 182.62235 63.544248 184.31289 63.41082 186.08398 63.400391 z M 135.85938 63.859375 C 136.24172 63.863828 136.63907 63.889562 137.06445 63.933594 C 139.71163 64.209499 150.20707 67.463281 149.73047 67.859375 C 149.43567 68.105044 139.55157 72.663139 126.06055 78.775391 C 122.59774 80.34465 113.18308 84.629599 105.14062 88.296875 L 90.519531 94.964844 L 89.789062 97.964844 C 88.821503 101.94847 88.414248 111.29568 89.060547 114.66211 C 89.890531 118.98249 92.444331 123.72582 95.583984 126.7793 C 99.951606 131.0256 104.68704 133.10118 112.24609 134.08008 C 123.71091 135.56619 134.62484 132.24276 160.79883 119.29297 L 171.76953 113.86719 L 174.01953 115.94922 C 175.25695 117.09404 182.38744 123.67872 189.86523 130.58203 C 197.34265 137.48458 204.46659 144.07002 205.69531 145.21484 C 206.92441 146.35966 210.763 149.93717 214.22656 153.16602 C 217.6905 156.39487 223.08174 161.42072 226.20703 164.33398 C 245.40892 182.2308 247.41049 184.26179 248.20117 186.64062 C 250.02668 192.1387 246.7319 199.40388 240.99609 202.52539 C 239.46576 203.35878 238.12247 203.72754 236.08984 203.87305 L 233.28906 204.07422 L 229.75 200.67773 C 227.80392 198.81027 221.1801 192.32125 215.0293 186.25586 C 208.87849 180.19085 203.43022 175.09693 202.92188 174.93555 C 201.10468 174.35804 198.94958 176.8772 199.86914 178.50391 C 200.35179 179.3577 203.05491 182.15945 206.55664 185.43555 C 208.20565 186.97722 213.98912 192.63849 219.4082 198.01562 C 230.23239 208.75515 229.7116 207.96958 228.88086 212.35156 C 227.74738 218.32775 224.63339 222.70129 220.375 224.30078 C 218.58804 224.97203 217.40031 225.13033 214.95117 225.02148 L 211.81641 224.88086 L 200.12109 213.28516 C 181.79794 195.11697 180.39053 193.80469 179.22266 193.80469 C 178.07444 193.80469 177.10015 194.71815 176.63867 196.22656 C 176.36277 197.13629 177.66789 198.53485 191.27344 211.88867 L 206.21289 226.55273 L 205.91406 229.375 C 205.12339 236.88039 200.84788 240.49909 193.33984 240.01758 C 186.72302 239.59503 187.00184 239.79186 172.05078 224.95117 C 159.27938 212.2735 155.4391 208.59394 154.26367 207.91211 C 153.38191 207.4015 151.62598 208.05488 151.16602 209.0625 C 150.93168 209.57576 150.85625 210.44661 150.99609 210.99805 C 151.1435 211.59219 157.12542 217.7541 165.68945 226.13672 C 182.02419 242.12714 180.77269 240.26272 178.50195 245.2207 C 175.37666 252.04426 169.73214 254.57062 162.93164 252.19141 L 162.94727 252.19336 C 160.63117 251.38341 157.18752 249.33509 153.98438 246.86328 C 153.27345 246.31374 153.27541 246.23629 154.04492 244.7207 C 156.4351 240.03522 156.97324 233.38236 155.37109 228.3125 C 153.1287 221.21644 146.93234 215.54537 139.61328 213.89258 L 136.81641 213.25977 L 136.3457 210.78125 C 134.85884 202.95801 127.95286 196.10239 119.90625 194.46094 L 117.39062 193.94922 L 116.88477 191.74414 C 115.00823 183.56411 108.64058 177.28438 100.41406 175.50195 C 98.217779 175.02649 98.098363 174.93705 97.839844 173.53711 C 96.892316 168.40149 91.735923 162.17831 86.259766 159.5625 C 78.024931 155.62877 68.24748 157.28611 61.916016 163.6875 C 59.97674 165.6487 49.849154 178.7073 49.439453 179.77539 C 49.254256 180.25615 47.340235 179.4316 40.408203 175.86523 C 35.570786 173.37868 31.399018 171.14209 31.136719 170.89453 C 30.546734 170.33743 29.17323 162.23711 28.339844 154.39648 C 27.478867 146.30225 27.487182 129.96085 28.339844 122.50195 C 29.64756 111.26391 34.028284 96.372659 39.671875 83.988281 L 41.091797 80.873047 L 43.826172 81.902344 C 45.330046 82.468517 48.679358 83.755231 51.267578 84.761719 C 60.306696 88.274412 63.933013 89.107295 70.195312 89.103516 C 77.840163 89.103516 80.944487 88.101914 95.576172 80.958984 C 112.94688 72.479236 126.81578 66.26458 132.51758 64.404297 C 133.70416 64.017651 134.71234 63.846017 135.85938 63.859375 z M 77.126953 165.59961 C 80.323678 165.59961 81.054727 165.73941 82.931641 166.7168 C 88.80805 169.77481 91.87323 176.29124 90.177734 182.12305 C 89.818679 183.36727 89.519531 184.49146 89.519531 184.62109 C 89.519531 184.75338 90.279221 184.45921 91.208984 183.97656 C 93.926465 182.56 98.294317 182.73066 101.75977 184.39062 C 104.78112 185.83554 107.04095 188.07154 108.35547 190.91602 C 109.04977 192.41687 109.22461 193.56945 109.22461 196.6543 C 109.22499 200.01052 109.08551 200.77913 108.17578 202.54492 L 107.125 204.57617 L 109.58398 203.35742 C 111.74285 202.28782 112.46649 202.14006 115.50977 202.14648 C 119.63323 202.14648 121.77518 202.97423 124.66992 205.64258 C 127.32353 208.08944 128.60488 210.78389 128.84375 214.42773 C 129.07052 217.85539 128.50416 220.26687 126.86914 222.84375 L 125.72852 224.64062 L 127.52539 223.5 C 132.82315 220.13962 139.98889 220.91068 144.52734 225.33008 C 147.09704 227.83213 148.22852 230.74189 148.22852 234.8457 C 148.22852 239.332 147.38502 241.11518 142.06836 247.84766 C 137.9294 253.08873 135.47539 255.19502 132.60938 255.9668 C 130.63041 256.49971 127.83671 256.74284 126.26367 256.51758 L 126.25586 256.51367 C 125.57101 256.41918 123.84279 255.751 122.41602 255.03516 C 119.16487 253.4058 116.63748 250.44954 115.68164 247.16211 C 114.87471 244.38642 115.05966 239.7342 116.05859 237.81836 L 116.72852 236.5293 L 114.7168 237.88281 C 111.73248 239.89125 109.0239 240.66963 105.81055 240.43945 C 100.89489 240.09174 96.737732 237.35862 94.496094 233.01367 C 92.499747 229.14306 92.868081 222.66954 95.259766 219.62891 C 96.106758 218.55212 95.683744 218.13364 94.814453 219.18359 C 93.899052 220.28722 89.923107 221.47102 87.105469 221.48047 C 83.440461 221.48047 80.414213 220.30845 77.878906 217.86914 C 74.775158 214.88294 73.890372 212.696 73.882812 207.98633 C 73.882812 205.2439 74.046131 203.88549 74.443359 203.40625 C 75.301312 202.37255 74.716511 202.19062 73.205078 203.01758 C 71.104795 204.16126 65.146773 204.06277 62.673828 202.84766 C 59.656631 201.36041 57.573693 199.29506 56.125 196.35156 C 54.95637 193.97802 54.792023 193.24291 54.787109 190.375 C 54.787109 186.01683 55.641073 184.28565 61.677734 176.54102 C 67.656569 168.86933 68.476264 168.02432 71.228516 166.6875 C 73.151917 165.75433 73.989567 165.59923 77.126953 165.59961 z "
       transform="matrix(0.26458333,0,0,0.26458333,1980,-2024.6667)"
       id="rect4575" />
  </g>
</svg>
