<?xml version="1.0" encoding="UTF-8" standalone="no"?>
<!-- Created with Inkscape (http://www.inkscape.org/) -->

<svg
   xmlns:dc="http://purl.org/dc/elements/1.1/"
   xmlns:cc="http://creativecommons.org/ns#"
   xmlns:rdf="http://www.w3.org/1999/02/22-rdf-syntax-ns#"
   xmlns:svg="http://www.w3.org/2000/svg"
   xmlns="http://www.w3.org/2000/svg"
   xmlns:xlink="http://www.w3.org/1999/xlink"
   xmlns:sodipodi="http://sodipodi.sourceforge.net/DTD/sodipodi-0.dtd"
   xmlns:inkscape="http://www.inkscape.org/namespaces/inkscape"
   width="320"
   height="320"
   viewBox="0 0 84.666664 84.666664"
   version="1.1"
   id="svg8"
   inkscape:version="0.92.3 (2405546, 2018-03-11)"
   sodipodi:docname="factory.svg">
  <defs
     id="defs2">
    <inkscape:perspective
       sodipodi:type="inkscape:persp3d"
       inkscape:vp_x="0 : 2.3337374 : 1"
       inkscape:vp_y="1981.3302 : 3976.2737 : 1"
       inkscape:vp_z="3981.3301 : 2.3337374 : 1"
       inkscape:persp3d-origin="2000 : 1333.3333 : 1"
       id="perspective1023" />
    <linearGradient
       inkscape:collect="always"
       id="linearGradient872">
      <stop
         style="stop-color:#ffffff;stop-opacity:0.50196081"
         offset="0"
         id="stop868" />
      <stop
         style="stop-color:#f6f6fb;stop-opacity:0"
         offset="1"
         id="stop870" />
    </linearGradient>
    <clipPath
       clipPathUnits="userSpaceOnUse"
       id="clipPath1121">
      <path
         style="opacity:0.85;vector-effect:none;fill:url(#linearGradient1125);fill-opacity:1;stroke:none;stroke-width:0.26458332;stroke-linecap:butt;stroke-linejoin:miter;stroke-miterlimit:4;stroke-dasharray:none;stroke-dashoffset:0;stroke-opacity:1;paint-order:markers stroke fill"
         d="m 1985,-1980 h 30 c 2.77,0 5,2.23 5,5 v 30 c 0,2.77 -2.23,5 -5,5 h -30 c -2.77,0 -5,-2.23 -5,-5 v -30 c 0,-2.77 2.23,-5 5,-5 z"
         id="path1123"
         inkscape:connector-curvature="0" />
    </clipPath>
    <linearGradient
       inkscape:collect="always"
       xlink:href="#linearGradient872"
       id="linearGradient1125"
       gradientUnits="userSpaceOnUse"
       gradientTransform="translate(1944.6492,-2072.2806)"
       x1="75.350754"
       y1="132.28059"
       x2="55.350754"
       y2="92.280586" />
  </defs>
  <sodipodi:namedview
     id="base"
     pagecolor="#ffffff"
     bordercolor="#666666"
     borderopacity="1.0"
     inkscape:pageopacity="0.0"
     inkscape:pageshadow="2"
     inkscape:zoom="2.59375"
     inkscape:cx="160"
     inkscape:cy="160"
     inkscape:document-units="mm"
     inkscape:current-layer="layer3"
     showgrid="true"
     fit-margin-top="0"
     fit-margin-left="0"
     fit-margin-right="0"
     fit-margin-bottom="0"
     inkscape:snap-bbox="true"
     inkscape:snap-bbox-edge-midpoints="true"
     inkscape:bbox-nodes="true"
     inkscape:window-width="1920"
     inkscape:window-height="1025"
     inkscape:window-x="1920"
     inkscape:window-y="27"
     inkscape:window-maximized="1"
     units="px">
    <inkscape:grid
       type="xygrid"
       id="grid829"
       empspacing="4"
       dotted="true" />
  </sodipodi:namedview>
  <metadata
     id="metadata5">
    <rdf:RDF>
      <cc:Work
         rdf:about="">
        <dc:format>image/svg+xml</dc:format>
        <dc:type
           rdf:resource="http://purl.org/dc/dcmitype/StillImage" />
        <dc:title></dc:title>
      </cc:Work>
    </rdf:RDF>
  </metadata>
  <g
     inkscape:label="Layer 1"
     inkscape:groupmode="layer"
     id="layer1"
     transform="translate(-2015.3507,1932.3861)"
     style="display:inline" />
  <g
     inkscape:groupmode="layer"
     id="layer2"
     inkscape:label="P_"
     style="display:inline"
     transform="translate(-1980,2024.6667)" />
  <g
     inkscape:groupmode="layer"
     id="layer3"
     inkscape:label="grad"
     style="display:inline"
     transform="translate(-1980,2024.6667)">
    <path
       style="opacity:1;vector-effect:none;fill:#483d8b;fill-opacity:1;stroke:none;stroke-width:7.99999952;stroke-linecap:butt;stroke-linejoin:round;stroke-miterlimit:4;stroke-dasharray:none;stroke-dashoffset:0;stroke-opacity:1;paint-order:markers stroke fill"
       d="M 30.236328 0 C 13.485462 0 0 13.485462 0 30.236328 L 0 289.76367 C 0 306.51454 13.485462 320 30.236328 320 L 289.76367 320 C 306.51454 320 320 306.51454 320 289.76367 L 320 30.236328 C 320 13.485462 306.51454 0 289.76367 0 L 30.236328 0 z M 121.52734 86.009766 A 16.001599 16.001599 0 0 1 137.99609 101.99805 L 137.99609 136.61133 L 182.53125 90.84375 A 16.001599 16.001599 0 0 1 210 101.99805 L 210 134.02734 L 248.06055 91.353516 A 16.001599 16.001599 0 0 1 276.00195 101.99805 L 276.00195 247.99805 A 16.001599 16.001599 0 0 1 259.99805 264.00195 L 60 264.00195 A 16.001599 16.001599 0 0 1 44.003906 247.99805 L 44.003906 166 A 16.001599 16.001599 0 0 1 48.505859 154.86719 L 110.50781 90.867188 A 16.001599 16.001599 0 0 1 121.52734 86.009766 z M 83.119141 172 C 74.743708 172 68 178.74371 68 187.11914 L 68 200.88281 C 68 209.25825 74.743708 216 83.119141 216 L 104.88281 216 C 113.25825 216 120 209.25825 120 200.88281 L 120 187.11914 C 120 178.74371 113.25825 172 104.88281 172 L 83.119141 172 z M 151.11719 172 C 142.74175 172 136 178.74371 136 187.11914 L 136 200.88281 C 136 209.25825 142.74175 216 151.11719 216 L 172.88086 216 C 181.25629 216 188 209.25825 188 200.88281 L 188 187.11914 C 188 178.74371 181.25629 172 172.88086 172 L 151.11719 172 z M 219.11719 172 C 210.74175 172 204 178.74371 204 187.11914 L 204 200.88281 C 204 209.25825 210.74175 216 219.11719 216 L 240.88086 216 C 249.25629 216 256 209.25825 256 200.88281 L 256 187.11914 C 256 178.74371 249.25629 172 240.88086 172 L 219.11719 172 z "
       id="rect831"
       transform="matrix(0.26458333,0,0,0.26458333,1980,-2024.6667)" />
  </g>
</svg>
