<?xml version="1.0" encoding="UTF-8" standalone="no"?>
<!-- Created with Inkscape (http://www.inkscape.org/) -->

<svg
   xmlns:dc="http://purl.org/dc/elements/1.1/"
   xmlns:cc="http://creativecommons.org/ns#"
   xmlns:rdf="http://www.w3.org/1999/02/22-rdf-syntax-ns#"
   xmlns:svg="http://www.w3.org/2000/svg"
   xmlns="http://www.w3.org/2000/svg"
   xmlns:xlink="http://www.w3.org/1999/xlink"
   xmlns:sodipodi="http://sodipodi.sourceforge.net/DTD/sodipodi-0.dtd"
   xmlns:inkscape="http://www.inkscape.org/namespaces/inkscape"
   width="320"
   height="320"
   viewBox="0 0 84.666664 84.666664"
   version="1.1"
   id="svg8"
   inkscape:version="0.92.3 (2405546, 2018-03-11)"
   sodipodi:docname="login.svg">
  <defs
     id="defs2">
    <inkscape:perspective
       sodipodi:type="inkscape:persp3d"
       inkscape:vp_x="0 : 2.3337374 : 1"
       inkscape:vp_y="1981.3302 : 3976.2737 : 1"
       inkscape:vp_z="3981.3301 : 2.3337374 : 1"
       inkscape:persp3d-origin="2000 : 1333.3333 : 1"
       id="perspective1023" />
    <linearGradient
       inkscape:collect="always"
       id="linearGradient872">
      <stop
         style="stop-color:#ffffff;stop-opacity:0.50196081"
         offset="0"
         id="stop868" />
      <stop
         style="stop-color:#f6f6fb;stop-opacity:0"
         offset="1"
         id="stop870" />
    </linearGradient>
    <clipPath
       clipPathUnits="userSpaceOnUse"
       id="clipPath1121">
      <path
         style="opacity:0.85;vector-effect:none;fill:url(#linearGradient1125);fill-opacity:1;stroke:none;stroke-width:0.26458332;stroke-linecap:butt;stroke-linejoin:miter;stroke-miterlimit:4;stroke-dasharray:none;stroke-dashoffset:0;stroke-opacity:1;paint-order:markers stroke fill"
         d="m 1985,-1980 h 30 c 2.77,0 5,2.23 5,5 v 30 c 0,2.77 -2.23,5 -5,5 h -30 c -2.77,0 -5,-2.23 -5,-5 v -30 c 0,-2.77 2.23,-5 5,-5 z"
         id="path1123"
         inkscape:connector-curvature="0" />
    </clipPath>
    <linearGradient
       inkscape:collect="always"
       xlink:href="#linearGradient872"
       id="linearGradient1125"
       gradientUnits="userSpaceOnUse"
       gradientTransform="translate(1944.6492,-2072.2806)"
       x1="75.350754"
       y1="132.28059"
       x2="55.350754"
       y2="92.280586" />
  </defs>
  <sodipodi:namedview
     id="base"
     pagecolor="#ffffff"
     bordercolor="#666666"
     borderopacity="1.0"
     inkscape:pageopacity="0.0"
     inkscape:pageshadow="2"
     inkscape:zoom="1.296875"
     inkscape:cx="4.626506"
     inkscape:cy="160"
     inkscape:document-units="mm"
     inkscape:current-layer="layer3"
     showgrid="true"
     fit-margin-top="0"
     fit-margin-left="0"
     fit-margin-right="0"
     fit-margin-bottom="0"
     inkscape:snap-bbox="true"
     inkscape:snap-bbox-edge-midpoints="true"
     inkscape:bbox-nodes="true"
     inkscape:window-width="1920"
     inkscape:window-height="1025"
     inkscape:window-x="1920"
     inkscape:window-y="27"
     inkscape:window-maximized="1"
     units="px">
    <inkscape:grid
       type="xygrid"
       id="grid829"
       empspacing="4"
       dotted="true" />
  </sodipodi:namedview>
  <metadata
     id="metadata5">
    <rdf:RDF>
      <cc:Work
         rdf:about="">
        <dc:format>image/svg+xml</dc:format>
        <dc:type
           rdf:resource="http://purl.org/dc/dcmitype/StillImage" />
        <dc:title></dc:title>
      </cc:Work>
    </rdf:RDF>
  </metadata>
  <g
     inkscape:label="Layer 1"
     inkscape:groupmode="layer"
     id="layer1"
     transform="translate(-2015.3507,1932.3861)"
     style="display:inline" />
  <g
     inkscape:groupmode="layer"
     id="layer2"
     inkscape:label="P_"
     style="display:inline"
     transform="translate(-1980,2024.6667)" />
  <g
     inkscape:groupmode="layer"
     id="layer3"
     inkscape:label="grad"
     style="display:inline"
     transform="translate(-1980,2024.6667)">
    <path
       style="opacity:1;vector-effect:none;fill:#483d8b;fill-opacity:1;stroke:none;stroke-width:2.11666656;stroke-linecap:butt;stroke-linejoin:round;stroke-miterlimit:4;stroke-dasharray:none;stroke-dashoffset:0;stroke-opacity:1;paint-order:markers stroke fill"
       d="m 2056.6666,-2024.6667 c 4.432,0 8.0001,3.568 8.0001,8 v 68.6666 c 0,4.432 -3.5681,8.0001 -8.0001,8.0001 H 1988 c -4.432,0 -8,-3.5681 -8,-8.0001 v -68.6666 c 0,-4.432 3.568,-8 8,-8 z m -24.8088,16.4052 h -33.8672 a 4.2337563,4.2337563 0 0 0 -4.2323,4.2323 v 44.9786 a 4.2337563,4.2337563 0 0 0 4.2323,4.2344 h 33.8672 a 4.2337563,4.2337563 0 0 0 4.2349,-4.2344 v -7.4083 a 4.2337563,4.2337563 0 1 0 -8.4672,0 v 3.1755 h -25.4 v -36.5114 h 25.4 v 3.1739 a 4.2337563,4.2337563 0 1 0 8.4672,0 v -7.4083 a 4.2337563,4.2337563 0 0 0 -4.2349,-4.2323 z m -10.5973,13.1894 a 4.2337563,4.2337563 0 0 0 -2.7264,0.9958 l -11.6427,9.5255 a 4.2337563,4.2337563 0 0 0 0,6.5526 l 11.6427,9.5255 a 4.2339791,4.2339791 0 1 0 5.3609,-6.5547 l -2.4614,-2.0138 h 26.2388 a 4.2337563,4.2337563 0 1 0 0,-8.4667 h -26.2408 l 2.4634,-2.0153 a 4.2337563,4.2337563 0 0 0 -2.6345,-7.5489 z"
       id="rect831"
       inkscape:connector-curvature="0" />
  </g>
</svg>
